<svg width="346" height="232" viewBox="0 0 346 232" fill="none" xmlns="http://www.w3.org/2000/svg">
<g clip-path="url(#clip0_3_981)">
<path d="M312.257 232C318.335 232.011 324.269 230.402 329.252 227.393C334.235 224.383 338.024 220.118 340.103 215.179C349.222 193.305 352.01 157.291 316.382 113.372C277.052 64.8887 280.15 18.2413 224.807 13.108C138.112 5.06652 83.8948 67.0253 53.3962 96.1751C4.35449 143.049 4.90903 175.924 0.198001 208.076C-0.235503 211.072 0.0731232 214.113 1.10338 216.998C2.13364 219.883 3.86194 222.545 6.17348 224.808C8.48503 227.071 11.3269 228.882 14.5103 230.122C17.6938 231.362 21.1459 232.002 24.6374 232H312.257Z" fill="#F3F5FD"/>
<path d="M72.7594 77.5592C72.7594 77.5592 75.8657 75.6786 74.0011 67.9311L80.7124 66.0936C80.7124 66.0936 80.9467 73.1951 84.7415 75.0511L72.7594 77.5592Z" fill="#E98862"/>
<path opacity="0.15" d="M83.1232 73.7331L76.8755 70.5697L81.3517 70.0493C81.6718 71.3619 82.2726 72.6113 83.1232 73.7331Z" fill="black"/>
<path d="M69.6686 65.3117C70.4844 67.6344 72.3057 69.7245 74.8384 70.2321C77.6094 70.8554 80.5147 70.8829 83.3009 70.3123C90.7439 68.9734 87.1372 54.3473 83.1557 51.8582C79.1743 49.3692 68.9572 52.3104 68.371 57.2507C68.0678 59.8057 68.8918 63.0995 69.6686 65.3117Z" fill="#E98862"/>
<path d="M85.7093 52.1029C85.4406 51.819 85.0902 51.6015 84.6933 51.472C81.1291 50.2597 74.8627 50.3796 71.9994 51.4671C68.6791 52.7285 64.7137 55.6919 66.6918 61.6339C66.775 61.8842 66.8608 62.1247 66.9475 62.3603C65.8354 62.3164 64.7308 62.5379 63.7547 63.0006C62.7786 63.4634 61.9685 64.1495 61.4133 64.9839C60.8581 65.8182 60.5792 66.7686 60.607 67.7309C60.6348 68.6932 60.9684 69.6304 61.5712 70.4397C62.1739 71.2489 63.0226 71.8992 64.0243 72.3191C65.026 72.7391 66.142 72.9126 67.2501 72.8206C68.3582 72.7286 69.4157 72.3747 70.3066 71.7976C71.1976 71.2205 71.8877 70.4425 72.3014 69.5488C72.8679 69.876 73.469 70.1559 74.0968 70.3846C74.5387 70.5517 74.6136 70.3689 74.6998 69.9587C75.0005 68.5257 74.7076 63.0163 73.7493 59.0943L81.8175 57.9835L82.7316 54.3589L84.3866 57.7085L87.1459 57.4126C87.2447 55.4926 87.3205 53.3182 85.7093 52.1029Z" fill="#0F1011"/>
<path d="M80.0859 62.3334C80.4326 62.3334 80.7137 62.0903 80.7137 61.7905C80.7137 61.4907 80.4326 61.2477 80.0859 61.2477C79.7392 61.2477 79.4581 61.4907 79.4581 61.7905C79.4581 62.0903 79.7392 62.3334 80.0859 62.3334Z" fill="#0F1011"/>
<path d="M84.9506 61.4582C85.2973 61.4582 85.5784 61.2152 85.5784 60.9154C85.5784 60.6156 85.2973 60.3726 84.9506 60.3726C84.6039 60.3726 84.3229 60.6156 84.3229 60.9154C84.3229 61.2152 84.6039 61.4582 84.9506 61.4582Z" fill="#0F1011"/>
<path d="M84.1765 59.5577L85.8297 59.3985" stroke="#0F1011" stroke-width="1.362" stroke-miterlimit="10" stroke-linecap="round"/>
<path d="M78.5652 60.7056L80.1439 60.1923" stroke="#0F1011" stroke-width="1.362" stroke-miterlimit="10" stroke-linecap="round"/>
<path d="M77.034 63.4562C77.11 63.7536 77.1169 64.0611 77.0543 64.3609C76.9918 64.6607 76.861 64.9467 76.6697 65.2025C76.4783 65.4582 76.2301 65.6786 75.9395 65.8507C75.6489 66.0229 75.3217 66.1435 74.9768 66.2055C74.6319 66.2675 74.2762 66.2696 73.9304 66.2119C73.5845 66.1541 73.2554 66.0375 72.962 65.8689C72.6686 65.7002 72.4169 65.4829 72.2214 65.2295C72.0259 64.9762 71.8905 64.6917 71.8231 64.3927C71.7457 64.0965 71.7381 63.7899 71.8007 63.4911C71.8632 63.1922 71.9947 62.9074 72.1872 62.6534C72.3798 62.3995 72.6295 62.1816 72.9214 62.0128C73.2133 61.8441 73.5416 61.7278 73.8866 61.671C75.7612 61.417 76.7347 62.212 77.034 63.4562Z" fill="#E98862"/>
<g opacity="0.15">
<path d="M83.2796 64.4823C83.2282 64.4876 83.1763 64.4769 83.1333 64.4521C83.0902 64.4272 83.0589 64.3898 83.045 64.3467C83.031 64.3036 83.0354 64.2576 83.0573 64.2171C83.0792 64.1765 83.1172 64.1441 83.1644 64.1256L84.3831 63.6532L83.2523 62.0423C83.2243 61.9999 83.2165 61.9497 83.2307 61.9024C83.2449 61.8551 83.2798 61.8144 83.3282 61.7891C83.3765 61.7638 83.4343 61.7558 83.4894 61.7669C83.5444 61.7779 83.5923 61.8071 83.6228 61.8482L84.8791 63.6416C84.895 63.6643 84.9051 63.6896 84.9088 63.716C84.9126 63.7423 84.9097 63.769 84.9006 63.7943C84.8915 63.8197 84.8762 63.843 84.8559 63.8629C84.8355 63.8827 84.8105 63.8986 84.7825 63.9095L83.3398 64.4684C83.3207 64.4755 83.3004 64.4802 83.2796 64.4823Z" fill="black"/>
</g>
<path d="M80.9822 66.0025C80.9822 66.0025 83.3117 65.9651 84.854 65.3061C84.854 65.3061 85.0273 66.6173 83.2277 66.941C81.428 67.2647 80.9822 66.0025 80.9822 66.0025Z" fill="#F8FCFF"/>
<path d="M99.5074 37.2992L104.319 35.7602C104.319 35.7602 104.926 30.0448 99.3761 27.0227C97.5366 26.0213 96.1944 27.8015 96.5315 28.383C97.6454 30.3048 98.9663 32.0731 98.9399 33.9204C98.2285 33.3461 97.2026 32.6092 96.9002 32.8789C96.1048 33.584 99.5074 37.2992 99.5074 37.2992Z" fill="#E98862"/>
<path d="M28.2324 164.2L30.0368 156.488C30.0637 156.493 30.0988 156.499 30.1404 156.508C29.4866 156.366 25.5519 155.272 22.281 154.341L19.4359 161.814C27.1515 164.01 27.9651 164.153 28.2324 164.2Z" fill="#E98862"/>
<path d="M13.3684 170.655C13.3109 170.861 13.3031 171.074 13.3454 171.283C13.3877 171.491 13.4793 171.689 13.6144 171.866C13.7494 172.042 13.9251 172.193 14.1304 172.308C14.3357 172.423 14.5663 172.5 14.8076 172.534C15.1423 172.582 15.4857 172.546 15.7976 172.431C16.1094 172.316 16.3767 172.126 16.5679 171.884L22.5466 163.727C22.6616 163.569 22.7358 163.391 22.764 163.206C22.7922 163.02 22.7737 162.832 22.7099 162.653C22.0775 161.222 21.9929 159.653 22.4686 158.177C22.8937 157.039 23.6802 156.028 24.7383 155.258C24.8401 155.192 24.9182 155.102 24.9633 155C25.0085 154.897 25.019 154.785 24.9935 154.678C24.968 154.57 24.9077 154.471 24.8194 154.392C24.7312 154.312 24.6188 154.257 24.4953 154.231L19.4675 153.159C19.3193 153.128 19.1652 153.122 19.0143 153.141C18.8633 153.161 18.7184 153.207 18.5878 153.276C18.4573 153.344 18.3437 153.434 18.2536 153.541C18.1634 153.647 18.0985 153.768 18.0626 153.897L13.3684 170.655Z" fill="#C1D8ED"/>
<path d="M95.279 218.128C98.5005 211.68 98.7375 210.992 98.8155 210.766L90.0957 208.521C90.1035 208.498 90.1135 208.469 90.1278 208.434C89.9046 208.984 88.2926 212.275 86.927 215.008L95.279 218.128Z" fill="#E98862"/>
<path d="M104.917 224.147C105.149 224.215 105.395 224.241 105.639 224.223C105.883 224.206 106.12 224.144 106.336 224.044C106.551 223.943 106.74 223.805 106.891 223.639C107.042 223.472 107.152 223.28 107.213 223.075C107.298 222.791 107.288 222.493 107.183 222.214C107.078 221.935 106.884 221.688 106.622 221.502L97.7632 215.62C97.5913 215.507 97.3932 215.427 97.1823 215.386C96.9714 215.345 96.7529 215.344 96.5415 215.383C94.8363 215.799 93.0217 215.731 91.3643 215.19C90.0918 214.721 88.9972 213.953 88.2051 212.973C88.1384 212.879 88.0422 212.804 87.9279 212.756C87.8136 212.708 87.6859 212.689 87.5596 212.701C87.4333 212.713 87.3136 212.757 87.2146 212.826C87.1156 212.894 87.0413 212.986 87.0003 213.09L85.3154 217.324C85.2657 217.449 85.245 217.581 85.2544 217.713C85.2639 217.844 85.3034 217.973 85.3707 218.092C85.438 218.211 85.5317 218.317 85.6464 218.404C85.7612 218.491 85.8947 218.558 86.0394 218.6L104.917 224.147Z" fill="#C1D8ED"/>
<path d="M114.525 167.922C114.079 159.393 104.947 120.586 103.979 116.401L71.21 117.684C71.21 117.684 60.3461 154.218 59.9047 155.235L28.4156 153.306L25.1871 166.883L64.13 172.562C66.2042 173.002 68.391 172.798 70.3087 171.985C72.2265 171.173 73.7533 169.803 74.6226 168.117C74.6226 168.117 87.005 136.64 87.255 136.06L97.4456 165.264L85.9414 210.149L101.248 214.266C101.248 214.266 114.706 171.371 114.525 167.922Z" fill="#262626"/>
<path d="M41.1199 48.6098L35.9991 48.8829C35.9991 48.8829 33.313 43.1697 36.9765 38.4681C38.1895 36.9092 40.2509 38.0687 40.214 38.7187C40.0932 40.8657 39.1743 43.6418 40.0607 45.322C40.4428 44.5484 41.0381 43.5178 41.4397 43.6571C42.4968 44.0224 41.1199 48.6098 41.1199 48.6098Z" fill="#E98862"/>
<path d="M114.21 61.852L98.0287 79.647C99.766 84.581 99.1768 91.729 100.247 97.4421C102.491 109.453 106.689 111.146 105.58 115.087C104.506 118.909 69.6646 125.671 67.936 119.486C66.8399 115.552 70.1932 111.468 68.6335 103.717C67.3815 97.4758 60.506 90.6463 60.7659 84.6596L40.5857 74.612C39.9972 74.3179 39.4887 73.9178 39.0947 73.4388C38.7008 72.9598 38.4306 72.4132 38.3025 71.8359L32.9867 47.717L42.2667 46.1848L47.1796 68.468L65.9691 77.8263C67.6198 77.0642 69.4039 76.5416 71.2503 76.2791C71.2546 76.2791 71.2719 76.2753 71.3109 76.2716C72.0431 78.2946 76.8261 81.1905 82.0119 80.0891C85.9024 79.2724 86.5826 76.1217 86.2793 74.0762C86.2533 74.08 86.223 74.0837 86.1927 74.0875C86.9552 73.9826 87.4274 73.9226 87.4794 73.9151C88.7234 73.7606 89.9864 73.7581 91.2312 73.9077L105.238 58.5027L96.9933 36.0659L105.996 33.5896L114.999 58.0906C115.232 58.7256 115.283 59.4004 115.145 60.0561C115.008 60.7118 114.687 61.3283 114.21 61.852Z" fill="#367CFF"/>
<path d="M82.012 80.088C76.8262 81.1894 72.0432 78.2935 71.311 76.2705V76.2667C72.3032 76.1206 85.2873 74.21 85.4952 74.18C85.7769 74.1426 86.0108 74.1089 86.1928 74.0864C86.2231 74.0826 86.2534 74.0789 86.2794 74.0751C86.5827 76.1206 85.9025 79.2724 82.012 80.088Z" fill="#E98862"/>
<path d="M207.41 232H256.731C260.348 229.503 260.598 223.878 256.848 221.366C253.958 219.43 249.588 219.948 246.871 221.962C247.379 220.463 247.389 218.87 246.9 217.366C246.017 214.658 244.054 211.907 241.055 210.81C233.404 208.019 227.967 213.868 226.878 217.138C224.919 214.647 220.536 213.331 217.786 215.008C214.302 217.132 214.459 220.48 217.239 222.883C213.536 222.286 210.747 222.747 208.178 225.131C206.221 226.947 205.923 230.039 207.41 232Z" fill="#8DDBE0"/>
<path d="M304.442 152.242C302.768 151.768 301.049 152.3 299.406 153.381C301.572 148.653 302.465 144.383 298.763 144.191C296.173 144.057 294.189 145.775 292.682 148.217C292.152 143.923 290.784 140.719 287.721 141.782C284.358 142.947 283.846 146.943 284.357 151.124C282.875 148.988 281.281 147.798 279.831 149.05C275.508 152.788 286.119 163.324 286.119 163.324H288.753L290.257 164.735C289.954 165.292 289.786 165.623 289.786 165.623L291.696 168.985C291.696 168.985 311.389 154.208 304.442 152.242Z" fill="#8DDBE0"/>
<path d="M299.717 176.513H284.802L282.305 161.457H302.213L299.717 176.513Z" fill="#C1D8ED"/>
<path d="M278.466 181.204L266.639 231.088C266.563 231.349 266.389 231.58 266.144 231.745C265.899 231.91 265.598 232 265.287 232C265.075 232 264.866 231.958 264.676 231.878C264.485 231.797 264.319 231.68 264.188 231.536C264.058 231.391 263.968 231.223 263.924 231.044C263.88 230.865 263.884 230.679 263.936 230.501L275.932 180.041L278.466 181.204Z" fill="#C1D8ED"/>
<path d="M306.256 181.124L318.083 231.009C318.159 231.269 318.333 231.5 318.578 231.666C318.822 231.831 319.124 231.921 319.435 231.921C319.647 231.921 319.856 231.879 320.046 231.798C320.236 231.718 320.403 231.601 320.533 231.457C320.664 231.312 320.754 231.144 320.798 230.965C320.842 230.785 320.838 230.6 320.786 230.422L308.79 179.961L306.256 181.124Z" fill="#C1D8ED"/>
<path d="M318.686 176.325H266.035C264.704 176.325 263.625 177.258 263.625 178.409V182.998C263.625 184.149 264.704 185.082 266.035 185.082H318.686C320.018 185.082 321.097 184.149 321.097 182.998V178.409C321.097 177.258 320.018 176.325 318.686 176.325Z" fill="#DEE8F5"/>
<path d="M293.449 46.2275L293.839 43.6426L272.87 41.2824L191.758 32.1582L170.789 29.798L170.399 32.3829C170.627 32.3991 170.848 32.4551 171.05 32.5474C171.253 32.6398 171.431 32.7666 171.575 32.9203C171.718 33.0739 171.824 33.2512 171.887 33.4414C171.949 33.6315 171.966 33.8306 171.937 34.0266C171.907 34.2226 171.832 34.4115 171.716 34.5817C171.6 34.7519 171.445 34.8999 171.261 35.0169C171.077 35.1338 170.867 35.2173 170.644 35.2621C170.422 35.3069 170.191 35.3123 169.966 35.2777L169.643 37.4236C169.87 37.4403 170.092 37.4967 170.293 37.5894C170.495 37.682 170.672 37.809 170.816 37.9627C170.959 38.1164 171.065 38.2936 171.126 38.4835C171.188 38.6735 171.205 38.8724 171.175 39.0681C171.146 39.2638 171.071 39.4523 170.955 39.6223C170.839 39.7922 170.684 39.9401 170.5 40.0569C170.316 40.1738 170.107 40.2572 169.885 40.3022C169.662 40.3471 169.432 40.3526 169.207 40.3184L168.884 42.4643C169.112 42.481 169.333 42.5374 169.535 42.6301C169.736 42.7227 169.914 42.8497 170.057 43.0034C170.2 43.1571 170.306 43.3343 170.368 43.5242C170.43 43.7142 170.446 43.9131 170.417 44.1088C170.387 44.3045 170.312 44.493 170.196 44.663C170.08 44.8329 169.926 44.9808 169.742 45.0976C169.558 45.2145 169.348 45.2979 169.126 45.3428C168.904 45.3878 168.673 45.3933 168.449 45.3591L168.089 47.7485L168.114 47.7512C170.532 48.0365 172.721 49.1374 174.203 50.8134C175.685 52.4894 176.34 54.6044 176.026 56.6967C175.711 58.789 174.452 60.6887 172.523 61.9811C170.595 63.2735 168.153 63.8536 165.731 63.5948L165.707 63.5918L165.308 66.2434C165.535 66.2602 165.756 66.3165 165.958 66.4092C166.159 66.5018 166.337 66.6288 166.48 66.7825C166.623 66.9362 166.729 67.1134 166.791 67.3033C166.853 67.4933 166.869 67.6922 166.84 67.8879C166.811 68.0836 166.736 68.2721 166.62 68.4421C166.503 68.612 166.349 68.7599 166.165 68.8768C165.981 68.9936 165.772 69.077 165.549 69.122C165.327 69.1669 165.097 69.1724 164.872 69.1382L164.549 71.2841C164.778 71.2994 165.001 71.3549 165.204 71.447C165.407 71.5392 165.586 71.6662 165.731 71.8203C165.875 71.9743 165.982 72.1523 166.044 72.3432C166.107 72.5341 166.124 72.734 166.094 72.9307C166.064 73.1274 165.988 73.3168 165.871 73.4873C165.754 73.6579 165.598 73.806 165.412 73.9227C165.227 74.0393 165.015 74.1221 164.792 74.1659C164.568 74.2097 164.336 74.2136 164.111 74.1774L163.788 76.3233C164.016 76.3395 164.237 76.3954 164.439 76.4878C164.641 76.5802 164.82 76.707 164.963 76.8607C165.107 77.0143 165.213 77.1916 165.275 77.3818C165.338 77.5719 165.355 77.771 165.325 77.967C165.296 78.163 165.221 78.3518 165.105 78.5221C164.989 78.6923 164.834 78.8403 164.65 78.9573C164.465 79.0742 164.256 79.1576 164.033 79.2025C163.81 79.2473 163.58 79.2526 163.355 79.2181L163.005 81.5427L183.973 83.9029L265.082 93.0294L286.053 95.3895L286.402 93.0668C286.175 93.0496 285.955 92.9928 285.754 92.8999C285.553 92.8071 285.376 92.68 285.233 92.5265C285.091 92.3729 284.985 92.1959 284.924 92.0063C284.862 91.8166 284.846 91.6181 284.875 91.4228C284.904 91.2274 284.979 91.0392 285.095 90.8695C285.21 90.6998 285.365 90.552 285.548 90.4352C285.731 90.3183 285.94 90.2347 286.162 90.1894C286.384 90.1441 286.614 90.1381 286.838 90.1716L287.161 88.0261C286.934 88.0095 286.713 87.9531 286.511 87.8606C286.31 87.768 286.132 87.6411 285.989 87.4876C285.845 87.334 285.74 87.157 285.678 86.9671C285.616 86.7772 285.599 86.5784 285.628 86.3828C285.657 86.1871 285.732 85.9986 285.848 85.8286C285.964 85.6587 286.118 85.5107 286.302 85.3937C286.486 85.2768 286.695 85.1932 286.917 85.148C287.139 85.1029 287.37 85.0971 287.594 85.131L287.917 82.9854C287.69 82.9688 287.469 82.9124 287.268 82.8199C287.066 82.7273 286.888 82.6004 286.745 82.4469C286.602 82.2933 286.496 82.1163 286.434 81.9264C286.372 81.7365 286.355 81.5378 286.385 81.3421C286.414 81.1464 286.489 80.9579 286.605 80.788C286.72 80.618 286.875 80.47 287.058 80.3531C287.242 80.2361 287.451 80.1525 287.673 80.1073C287.896 80.0622 288.126 80.0564 288.351 80.0903L288.75 77.439L288.725 77.436C287.522 77.3007 286.362 76.9618 285.31 76.4387C284.258 75.9156 283.336 75.2186 282.596 74.3873C281.856 73.556 281.313 72.6069 280.997 71.594C280.681 70.5812 280.599 69.5244 280.756 68.4841C280.912 67.4438 281.304 66.4404 281.909 65.5311C282.514 64.6217 283.32 63.8244 284.281 63.1844C285.243 62.5445 286.34 62.0746 287.511 61.8015C288.683 61.5284 289.905 61.4574 291.108 61.5927L291.133 61.5954L291.493 59.206C291.265 59.1898 291.043 59.1338 290.841 59.0415C290.639 58.9491 290.461 58.8223 290.317 58.6686C290.173 58.515 290.067 58.3377 290.005 58.1475C289.943 57.9574 289.926 57.7582 289.955 57.5622C289.984 57.3663 290.059 57.1774 290.176 57.0072C290.292 56.837 290.447 56.689 290.631 56.572C290.815 56.455 291.025 56.3716 291.247 56.3268C291.47 56.282 291.701 56.2766 291.926 56.3112L292.249 54.1653C292.021 54.1491 291.8 54.0931 291.598 54.0008C291.395 53.9084 291.217 53.7816 291.073 53.6279C290.93 53.4743 290.824 53.297 290.761 53.1068C290.699 52.9167 290.682 52.7176 290.711 52.5216C290.741 52.3256 290.816 52.1367 290.932 51.9665C291.048 51.7963 291.203 51.6483 291.387 51.5313C291.571 51.4144 291.781 51.3309 292.004 51.2861C292.226 51.2413 292.457 51.2359 292.682 51.2705L293.005 49.1246C292.778 49.1079 292.556 49.0515 292.355 48.9588C292.153 48.8662 291.976 48.7392 291.832 48.5855C291.689 48.4318 291.583 48.2546 291.522 48.0647C291.46 47.8747 291.443 47.6758 291.473 47.4801C291.502 47.2844 291.577 47.0959 291.693 46.9259C291.809 46.756 291.964 46.6081 292.148 46.4913C292.332 46.3744 292.541 46.291 292.763 46.246C292.986 46.2011 293.216 46.1956 293.441 46.2298L293.449 46.2275Z" fill="#DEE8F5"/>
<path d="M274.37 89.5813C274.345 89.5833 274.321 89.5833 274.297 89.5813L176.082 78.5296C176.035 78.5244 175.99 78.5112 175.949 78.4909C175.908 78.4705 175.872 78.4434 175.843 78.411C175.814 78.3787 175.793 78.3417 175.781 78.3023C175.768 78.2628 175.765 78.2217 175.771 78.1812L182.138 35.8761C182.15 35.7943 182.199 35.7201 182.275 35.6698C182.35 35.6195 182.446 35.5972 182.541 35.6078L280.756 46.6595C280.802 46.6648 280.848 46.678 280.889 46.6984C280.93 46.7187 280.966 46.7459 280.994 46.7783C281.023 46.8107 281.044 46.8477 281.057 46.8871C281.069 46.9266 281.072 46.9678 281.066 47.0083L274.701 89.3127C274.69 89.3835 274.651 89.449 274.59 89.4979C274.53 89.5469 274.452 89.5763 274.37 89.5813ZM176.532 77.9519L274.034 88.9227L280.305 47.2357L182.804 36.2646L176.532 77.9519Z" fill="#F3F5FD"/>
<path d="M219.529 110.933C219.283 110.928 219.048 110.838 218.878 110.684C218.708 110.529 218.616 110.323 218.622 110.109L219.056 95.4731C219.062 95.2595 219.166 95.0568 219.345 94.9096C219.524 94.7624 219.764 94.6828 220.011 94.6883C220.258 94.6937 220.492 94.7838 220.663 94.9387C220.833 95.0937 220.925 95.3007 220.919 95.5143L220.485 110.151C220.482 110.256 220.455 110.36 220.405 110.457C220.355 110.553 220.284 110.641 220.195 110.713C220.106 110.786 220.001 110.843 219.887 110.881C219.773 110.918 219.651 110.936 219.529 110.933Z" fill="#0CBC8B"/>
<path d="M250.394 104.294C250.272 104.292 250.152 104.268 250.041 104.225C249.929 104.182 249.828 104.121 249.744 104.044L238.081 93.4299C237.914 93.2746 237.824 93.0686 237.832 92.8565C237.839 92.6444 237.943 92.4435 238.121 92.2974C238.299 92.1512 238.537 92.0717 238.782 92.0762C239.027 92.0806 239.261 92.1685 239.431 92.3209L251.093 102.935C251.22 103.05 251.304 103.196 251.336 103.353C251.367 103.51 251.344 103.671 251.269 103.817C251.194 103.962 251.071 104.085 250.915 104.17C250.76 104.255 250.578 104.298 250.394 104.294Z" fill="#0CBC8B"/>
<path d="M189.098 102.936C188.914 102.932 188.735 102.881 188.585 102.789C188.435 102.697 188.319 102.569 188.253 102.42C188.187 102.272 188.173 102.109 188.214 101.954C188.254 101.799 188.347 101.657 188.481 101.548L200.755 91.4641C200.843 91.3887 200.948 91.3293 201.063 91.2893C201.178 91.2493 201.301 91.2295 201.424 91.2311C201.548 91.2327 201.671 91.2557 201.784 91.2987C201.898 91.3417 202 91.4039 202.085 91.4815C202.171 91.5592 202.237 91.6508 202.281 91.751C202.325 91.8512 202.345 91.9579 202.341 92.065C202.336 92.1721 202.307 92.2773 202.255 92.3745C202.203 92.4717 202.129 92.559 202.038 92.6311L189.763 102.715C189.675 102.788 189.57 102.845 189.456 102.883C189.342 102.921 189.22 102.939 189.098 102.936Z" fill="#0CBC8B"/>
<path d="M229.363 0.00375136C229.609 0.0236849 229.835 0.12724 229.993 0.29164C230.15 0.456039 230.226 0.667818 230.203 0.880394L228.616 15.457C228.59 15.6676 228.469 15.8609 228.28 15.995C228.09 16.1291 227.847 16.1932 227.603 16.1735C227.36 16.1538 227.135 16.0518 226.977 15.8897C226.82 15.7275 226.742 15.5182 226.762 15.3072L228.349 0.730915C228.36 0.625557 228.395 0.523143 228.452 0.429542C228.509 0.335941 228.587 0.25299 228.681 0.185442C228.776 0.117894 228.884 0.0670759 229.001 0.0358984C229.118 0.00472079 229.241 -0.00620346 229.363 0.00375136Z" fill="#0CBC8B"/>
<path d="M198.046 4.80766C198.168 4.8174 198.286 4.84787 198.394 4.89731C198.502 4.94676 198.598 5.0142 198.676 5.09576L209.474 16.3722C209.631 16.5367 209.707 16.7484 209.683 16.961C209.66 17.1735 209.54 17.3694 209.35 17.5055C209.16 17.6416 208.915 17.7068 208.669 17.6868C208.424 17.6668 208.197 17.5632 208.04 17.3987L197.242 6.12225C197.125 5.99962 197.052 5.84964 197.033 5.69127C197.014 5.53291 197.05 5.37326 197.136 5.23252C197.222 5.09178 197.355 4.97627 197.517 4.90058C197.679 4.82489 197.863 4.79243 198.046 4.80729V4.80766Z" fill="#0CBC8B"/>
<path d="M259.093 9.77796C259.277 9.79251 259.451 9.85399 259.595 9.9546C259.738 10.0552 259.844 10.1904 259.898 10.343C259.952 10.4956 259.953 10.6587 259.9 10.8115C259.846 10.9644 259.742 11.1002 259.599 11.2016L246.559 20.5382C246.465 20.6056 246.356 20.6563 246.239 20.6874C246.122 20.7185 246 20.7294 245.878 20.7195C245.756 20.7096 245.638 20.679 245.53 20.6296C245.422 20.5802 245.326 20.5128 245.248 20.4314C245.17 20.35 245.112 20.2561 245.076 20.1551C245.04 20.0541 245.027 19.9479 245.039 19.8427C245.05 19.7374 245.085 19.6352 245.143 19.5418C245.2 19.4483 245.278 19.3655 245.372 19.2981L258.412 9.96153C258.506 9.89368 258.615 9.84253 258.731 9.81103C258.848 9.77953 258.971 9.76829 259.093 9.77796Z" fill="#0CBC8B"/>
<path d="M284.842 32.1458L285.065 29.4541L263.217 28.0945L178.715 22.8362L156.867 21.4766L156.643 24.168C156.873 24.1812 157.098 24.2335 157.304 24.322C157.511 24.4106 157.695 24.5335 157.846 24.6838C157.997 24.8341 158.113 25.0088 158.186 25.1979C158.259 25.3869 158.288 25.5866 158.271 25.7854C158.255 25.9841 158.193 26.1781 158.089 26.3562C157.986 26.5342 157.843 26.6928 157.668 26.8228C157.493 26.9528 157.29 27.0516 157.071 27.1137C156.852 27.1757 156.621 27.1996 156.392 27.1842L156.206 29.4196C156.436 29.4325 156.661 29.4846 156.868 29.573C157.074 29.6614 157.259 29.7843 157.411 29.9347C157.562 30.085 157.678 30.2598 157.751 30.449C157.824 30.6381 157.853 30.838 157.837 31.0369C157.82 31.2359 157.758 31.43 157.655 31.6082C157.551 31.7864 157.408 31.9451 157.233 32.0751C157.058 32.2051 156.855 32.3039 156.635 32.3658C156.416 32.4277 156.185 32.4515 155.955 32.4358L155.769 34.6712C155.999 34.6841 156.224 34.7362 156.431 34.8246C156.637 34.913 156.822 35.0359 156.973 35.1863C157.125 35.3366 157.241 35.5114 157.314 35.7006C157.387 35.8898 157.416 36.0896 157.4 36.2885C157.383 36.4875 157.321 36.6817 157.218 36.8598C157.114 37.038 156.97 37.1967 156.795 37.3267C156.621 37.4567 156.418 37.5555 156.198 37.6175C155.979 37.6794 155.748 37.7031 155.518 37.6874L155.311 40.1768H155.337C157.866 40.3371 160.217 41.3588 161.876 43.0175C163.534 44.6762 164.363 46.8362 164.181 49.0232C163.999 51.2102 162.821 53.2453 160.905 54.6815C158.989 56.1177 156.492 56.8377 153.963 56.6832H153.937L153.707 59.4454C153.937 59.4582 154.162 59.5104 154.369 59.5988C154.576 59.6872 154.76 59.8101 154.912 59.9604C155.063 60.1107 155.179 60.2855 155.252 60.4747C155.325 60.6639 155.354 60.8637 155.338 61.0627C155.321 61.2616 155.259 61.4558 155.156 61.634C155.052 61.8122 154.909 61.9708 154.734 62.1008C154.559 62.2309 154.356 62.3297 154.137 62.3916C153.917 62.4535 153.686 62.4773 153.456 62.4615L153.27 64.697C153.5 64.7101 153.725 64.7625 153.931 64.851C154.138 64.9395 154.322 65.0625 154.473 65.2128C154.625 65.3631 154.74 65.5378 154.813 65.7269C154.886 65.9159 154.915 66.1155 154.899 66.3143C154.882 66.5131 154.82 66.7071 154.717 66.8851C154.613 67.0632 154.47 67.2218 154.295 67.3518C154.12 67.4818 153.918 67.5806 153.699 67.6426C153.48 67.7046 153.249 67.7286 153.019 67.7131L152.833 69.9486C153.063 69.9615 153.288 70.0136 153.495 70.102C153.702 70.1904 153.886 70.3133 154.038 70.4636C154.189 70.614 154.305 70.7888 154.378 70.9779C154.451 71.1671 154.481 71.3669 154.464 71.5659C154.448 71.7649 154.386 71.959 154.282 72.1372C154.178 72.3154 154.035 72.474 153.86 72.6041C153.685 72.7341 153.482 72.8329 153.263 72.8948C153.043 72.9567 152.812 72.9805 152.582 72.9647L152.38 75.3864L174.228 76.7459L258.73 82.0043L280.578 83.3638L280.779 80.9422C280.549 80.929 280.325 80.8767 280.118 80.7881C279.912 80.6996 279.728 80.5767 279.576 80.4264C279.425 80.276 279.309 80.1013 279.236 79.9123C279.163 79.7233 279.134 79.5236 279.151 79.3248C279.168 79.1261 279.229 78.9321 279.333 78.754C279.437 78.576 279.58 78.4174 279.754 78.2874C279.929 78.1574 280.132 78.0586 280.351 77.9965C280.57 77.9345 280.801 77.9105 281.031 77.926L281.217 75.6906C280.987 75.6774 280.762 75.6251 280.555 75.5365C280.349 75.448 280.165 75.3251 280.013 75.1747C279.862 75.0244 279.747 74.8497 279.674 74.6607C279.601 74.4717 279.572 74.272 279.588 74.0732C279.605 73.8744 279.667 73.6804 279.77 73.5024C279.874 73.3244 280.017 73.1658 280.192 73.0358C280.366 72.9058 280.569 72.8069 280.788 72.7449C281.007 72.6829 281.238 72.6589 281.468 72.6744L281.654 70.439C281.424 70.4261 281.199 70.3739 280.992 70.2855C280.785 70.1971 280.6 70.0742 280.449 69.9239C280.297 69.7736 280.182 69.5988 280.108 69.4096C280.035 69.2204 280.006 69.0206 280.023 68.8216C280.039 68.6227 280.101 68.4285 280.205 68.2504C280.309 68.0722 280.452 67.9135 280.627 67.7835C280.802 67.6534 281.005 67.5546 281.224 67.4927C281.443 67.4308 281.675 67.4071 281.905 67.4228L282.135 64.6606H282.109C279.577 64.5031 277.222 63.4825 275.561 61.8233C273.9 60.1641 273.069 58.0022 273.251 55.8133C273.433 53.6244 274.614 51.5877 276.532 50.1512C278.451 48.7148 280.951 47.9964 283.482 48.1539H283.508L283.716 45.6645C283.253 45.6357 282.823 45.4492 282.519 45.1461C282.216 44.843 282.064 44.448 282.097 44.0481C282.13 43.6482 282.346 43.2761 282.697 43.0136C283.047 42.7512 283.504 42.6199 283.966 42.6487L284.153 40.4128C283.924 40.3986 283.7 40.3455 283.495 40.2566C283.29 40.1676 283.107 40.0446 282.956 39.8945C282.806 39.7444 282.691 39.5702 282.619 39.3818C282.547 39.1934 282.518 38.9945 282.534 38.7965C282.551 38.5985 282.612 38.4052 282.715 38.2277C282.818 38.0502 282.96 37.892 283.134 37.762C283.307 37.6321 283.509 37.5329 283.727 37.4703C283.945 37.4077 284.175 37.3828 284.404 37.397L284.589 35.1612C284.36 35.147 284.137 35.0938 283.932 35.0049C283.726 34.9159 283.543 34.7929 283.393 34.6428C283.243 34.4926 283.128 34.3184 283.056 34.13C282.984 33.9416 282.955 33.7427 282.971 33.5447C282.988 33.3467 283.049 33.1534 283.152 32.9759C283.255 32.7984 283.397 32.6402 283.571 32.5103C283.744 32.3803 283.946 32.2812 284.164 32.2186C284.382 32.156 284.612 32.1312 284.841 32.1454L284.842 32.1458Z" fill="#0CBC8B"/>
<path d="M268.025 77.9613L165.7 71.5925C165.651 71.5897 165.603 71.5785 165.559 71.5597C165.515 71.5409 165.476 71.5147 165.444 71.4827C165.411 71.4507 165.387 71.4135 165.371 71.3733C165.356 71.333 165.35 71.2905 165.353 71.2482L169.021 27.1741C169.024 27.1317 169.037 27.0904 169.059 27.0524C169.081 27.0144 169.111 26.9805 169.148 26.9526C169.185 26.9248 169.228 26.9035 169.274 26.8901C169.321 26.8767 169.37 26.8713 169.419 26.8744L271.744 33.2431C271.793 33.2459 271.841 33.2571 271.885 33.2759C271.929 33.2948 271.968 33.321 272 33.353C272.032 33.3849 272.057 33.4221 272.072 33.4624C272.088 33.5026 272.094 33.5451 272.09 33.5874L268.423 77.6616C268.419 77.7038 268.406 77.7451 268.385 77.7831C268.363 77.821 268.333 77.8549 268.296 77.8828C268.259 77.9106 268.216 77.9319 268.169 77.9453C268.123 77.9588 268.074 77.9642 268.025 77.9613ZM166.125 70.9743L267.707 77.2955L271.321 33.8669L169.739 27.5438L166.125 70.9743Z" fill="white"/>
<path d="M186.552 45.6802C186.095 45.6336 185.631 45.6865 185.203 45.8342C184.775 45.982 184.397 46.2198 184.102 46.5261C183.488 47.154 183.131 48.0596 183.033 49.2429C182.828 51.706 183.794 53.0041 185.932 53.1373C187.051 53.1694 188.169 53.0413 189.239 52.7581L189.076 54.7223C187.928 55.0418 186.718 55.1603 185.516 55.0707C183.658 54.9551 182.278 54.3793 181.374 53.3433C180.471 52.3073 180.095 50.8777 180.248 49.0545C180.308 48.0118 180.641 46.9945 181.224 46.0799C181.739 45.2787 182.524 44.6312 183.473 44.2225C184.482 43.8075 185.603 43.6371 186.715 43.7295C188.013 43.8222 189.269 44.1681 190.39 44.741L189.358 46.5905C188.905 46.3678 188.438 46.1663 187.959 45.987C187.514 45.8168 187.038 45.713 186.552 45.6802Z" fill="white"/>
<path d="M203.813 50.4908C203.66 52.319 203.019 53.6917 201.889 54.6088C200.76 55.5259 199.216 55.9234 197.259 55.8013C195.301 55.6794 193.839 55.0948 192.872 54.0476C191.906 53.0004 191.499 51.5574 191.652 49.7187C191.805 47.8803 192.447 46.509 193.579 45.6049C194.712 44.7007 196.259 44.3096 198.222 44.4315C200.186 44.5536 201.647 45.1357 202.604 46.1777C203.562 47.2197 203.965 48.6574 203.813 50.4908ZM194.49 49.9105C194.387 51.1446 194.581 52.0908 195.071 52.7491C195.331 53.0821 195.681 53.3552 196.09 53.5445C196.5 53.7339 196.957 53.8338 197.422 53.8356C199.583 53.9702 200.767 52.7963 200.974 50.314C201.181 47.8257 200.21 46.5145 198.061 46.3804C197.599 46.3252 197.128 46.3682 196.69 46.5057C196.251 46.6432 195.858 46.8709 195.545 47.1693C194.944 47.7625 194.593 48.6762 194.49 49.9105Z" fill="white"/>
<path d="M217.316 45.7944L216.721 52.9417C216.678 53.6948 216.397 54.4234 215.909 55.0483C215.427 55.6424 214.747 56.0955 213.959 56.3471C213.041 56.6355 212.06 56.743 211.087 56.6618C209.445 56.5599 208.2 56.1167 207.352 55.3322C206.923 54.9189 206.601 54.4308 206.409 53.9008C206.217 53.3709 206.158 52.8114 206.237 52.2602L206.83 45.1422L209.529 45.31L208.968 52.0741C208.898 52.9252 209.044 53.5621 209.407 53.9847C209.769 54.4073 210.408 54.647 211.323 54.704C211.673 54.7539 212.031 54.7367 212.373 54.6537C212.714 54.5706 213.031 54.4237 213.299 54.2233C213.732 53.8487 213.984 53.2327 214.055 52.3753L214.618 45.6285L217.316 45.7944Z" fill="white"/>
<path d="M228.981 49.9836C228.883 51.1724 228.377 52.0548 227.465 52.6307C226.553 53.2067 225.306 53.4457 223.724 53.3478L222.562 53.2755L222.235 57.2043L219.526 57.0357L220.446 45.99L224.526 46.244C226.075 46.3401 227.229 46.7023 227.988 47.3304C228.748 47.9586 229.079 48.8429 228.981 49.9836ZM222.719 51.3559L223.611 51.4113C224.268 51.4947 224.939 51.3854 225.517 51.1007C225.739 50.9634 225.92 50.7828 226.046 50.5735C226.171 50.3642 226.238 50.1322 226.241 49.8963C226.281 49.6744 226.264 49.4475 226.192 49.2318C226.12 49.016 225.993 48.8166 225.822 48.6476C225.375 48.3234 224.809 48.1481 224.225 48.1535L222.993 48.0786L222.719 51.3559Z" fill="white"/>
<path d="M242.816 52.9177C242.664 54.7464 242.022 56.1191 240.892 57.0357C239.762 57.9523 238.218 58.3499 236.261 58.2285C234.305 58.1069 232.842 57.5222 231.875 56.4745C230.908 55.4268 230.502 53.9838 230.656 52.1456C230.809 50.3071 231.451 48.9359 232.583 48.0318C233.715 47.1276 235.263 46.7366 237.226 46.8588C239.19 46.9809 240.65 47.563 241.608 48.6049C242.565 49.6469 242.968 51.0845 242.816 52.9177ZM233.493 52.3363C233.391 53.5703 233.584 54.5164 234.074 55.1745C234.334 55.5076 234.684 55.7806 235.093 55.97C235.503 56.1593 235.96 56.2592 236.425 56.2609C238.586 56.3956 239.77 55.2217 239.977 52.7394C240.184 50.2516 239.213 48.9404 237.064 48.8057C236.602 48.7506 236.131 48.7936 235.693 48.931C235.254 49.0685 234.861 49.2963 234.548 49.5947C233.946 50.1894 233.595 51.1032 233.493 52.3363Z" fill="white"/>
<path d="M256.334 59.3258L252.891 59.1115L248.029 50.4095L247.95 50.4047C247.938 51.887 247.906 52.9431 247.853 53.573L247.42 58.771L245 58.6211L245.919 47.5754L249.335 47.7879L254.195 56.4063L254.256 56.41C254.288 54.9692 254.329 53.9516 254.378 53.3572L254.812 48.1288L257.249 48.2805L256.334 59.3258Z" fill="white"/>
</g>
<defs>
<clipPath id="clip0_3_981">
<rect width="346" height="232" fill="white"/>
</clipPath>
</defs>
</svg>
