<svg width="272" height="201" viewBox="0 0 272 201" fill="none" xmlns="http://www.w3.org/2000/svg">
<g clip-path="url(#clip0_2_427)">
<path d="M82.0404 21.164C82.0404 11.1826 76.7817 3.19711 66.6743 3.19711C57.5541 3.19711 51.7762 11.3001 51.7762 21.164" fill="#C1D8ED"/>
<path d="M66.6747 3.19958C76.7725 3.19958 82.0238 11.1713 82.0404 21.1381C82.0488 21.2102 82.0527 21.2827 82.052 21.3552V116.797C82.0405 119.163 82.5082 121.509 83.4281 123.698C84.3481 125.888 85.7023 127.879 87.4129 129.556C89.1234 131.233 91.1567 132.564 93.3959 133.473C95.6351 134.381 98.0361 134.849 100.461 134.849C102.886 134.849 105.287 134.381 107.526 133.473C109.765 132.564 111.799 131.233 113.509 129.556C115.22 127.879 116.574 125.888 117.494 123.698C118.414 121.509 118.882 119.163 118.87 116.797H177.503V23.1612C177.503 12.4742 171.182 3.66615 160.232 3.19958H66.6747Z" fill="#D7E8F4"/>
<path d="M100.462 134.762H177.503C179.921 134.762 182.315 134.298 184.548 133.395C186.782 132.492 188.811 131.169 190.521 129.5C192.23 127.832 193.586 125.851 194.511 123.671C195.437 121.492 195.913 119.155 195.913 116.796H118.871C118.881 119.158 118.412 121.499 117.49 123.683C116.569 125.867 115.213 127.852 113.501 129.522C111.79 131.192 109.757 132.515 107.519 133.415C105.28 134.314 102.882 134.772 100.462 134.762Z" fill="#C1D8ED"/>
<path d="M110.203 41.8117L149.723 41.8117C151.505 41.8117 152.95 40.4018 152.95 38.6625C152.95 36.9233 151.505 35.5134 149.723 35.5134L110.203 35.5134C108.42 35.5134 106.976 36.9233 106.976 38.6625C106.976 40.4018 108.42 41.8117 110.203 41.8117Z" fill="#FAFBFC"/>
<path d="M161.013 57.1469H98.9124C98.1531 57.1469 97.5376 57.7476 97.5376 58.4886V58.489C97.5376 59.2301 98.1531 59.8308 98.9124 59.8308H161.013C161.772 59.8308 162.388 59.2301 162.388 58.489V58.4886C162.388 57.7476 161.772 57.1469 161.013 57.1469Z" fill="#FAFBFC"/>
<path d="M161.013 50.702H98.9124C98.1531 50.702 97.5376 51.3027 97.5376 52.0438V52.0442C97.5376 52.7852 98.1531 53.3859 98.9124 53.3859H161.013C161.772 53.3859 162.388 52.7852 162.388 52.0442V52.0438C162.388 51.3027 161.772 50.702 161.013 50.702Z" fill="#FAFBFC"/>
<path d="M161.013 63.5921H98.9124C98.1531 63.5921 97.5376 64.1929 97.5376 64.9339V64.9343C97.5376 65.6754 98.1531 66.2761 98.9124 66.2761H161.013C161.772 66.2761 162.388 65.6754 162.388 64.9343V64.9339C162.388 64.1929 161.772 63.5921 161.013 63.5921Z" fill="#FAFBFC"/>
<path d="M161.013 70.0374H98.9124C98.1531 70.0374 97.5376 70.6382 97.5376 71.3792V71.3796C97.5376 72.1207 98.1531 72.7214 98.9124 72.7214H161.013C161.772 72.7214 162.388 72.1207 162.388 71.3796V71.3792C162.388 70.6382 161.772 70.0374 161.013 70.0374Z" fill="#FAFBFC"/>
<path d="M161.013 76.4827H98.9124C98.1531 76.4827 97.5376 77.0834 97.5376 77.8245V77.8249C97.5376 78.5659 98.1531 79.1667 98.9124 79.1667H161.013C161.772 79.1667 162.388 78.5659 162.388 77.8249V77.8245C162.388 77.0834 161.772 76.4827 161.013 76.4827Z" fill="#FAFBFC"/>
<path d="M161.013 89.3728H98.9124C98.1531 89.3728 97.5376 89.9736 97.5376 90.7146V90.715C97.5376 91.4561 98.1531 92.0568 98.9124 92.0568H161.013C161.772 92.0568 162.388 91.4561 162.388 90.715V90.7146C162.388 89.9736 161.772 89.3728 161.013 89.3728Z" fill="#FAFBFC"/>
<path d="M161.013 82.928H98.9124C98.1531 82.928 97.5376 83.5287 97.5376 84.2698V84.2702C97.5376 85.0112 98.1531 85.612 98.9124 85.612H161.013C161.772 85.612 162.388 85.0112 162.388 84.2702V84.2698C162.388 83.5287 161.772 82.928 161.013 82.928Z" fill="#FAFBFC"/>
<path d="M142.338 95.8181H117.588C116.828 95.8181 116.213 96.4189 116.213 97.1599V97.1603C116.213 97.9014 116.828 98.5021 117.588 98.5021H142.338C143.097 98.5021 143.712 97.9014 143.712 97.1603V97.1599C143.712 96.4189 143.097 95.8181 142.338 95.8181Z" fill="#FAFBFC"/>
<path d="M44.0264 15.9394C44.1508 17.4254 42.5639 18.8089 42.3025 20.2094C42.0319 21.6585 43.0022 23.4989 42.3689 24.799C41.7269 26.1177 39.6453 26.5454 38.683 27.6506C37.7206 28.7559 37.6231 30.8295 36.3931 31.6602C35.1805 32.4795 33.1628 31.8412 31.7415 32.3353C30.3675 32.8128 29.2242 34.5629 27.7012 34.6844C26.1782 34.8059 24.761 33.2567 23.326 33.0016C21.8412 32.7375 19.9555 33.6844 18.6234 33.0664C17.2722 32.4398 16.8339 30.4083 15.7014 29.4691C14.5689 28.5299 12.4442 28.4347 11.5931 27.2343C10.7536 26.0508 11.4076 24.0817 10.9013 22.6945C10.412 21.3536 8.61887 20.2378 8.49437 18.7514C8.36988 17.265 9.9572 15.8819 10.2186 14.4814C10.4892 13.0323 9.51897 11.1919 10.1522 9.89188C10.7942 8.57318 12.8758 8.14549 13.8382 7.04023C14.8005 5.93496 14.898 3.86133 16.128 3.03066C17.3406 2.21133 19.3583 2.84962 20.7796 2.35551C22.1537 1.87801 23.2969 0.127974 24.8199 0.00647214C26.3429 -0.11503 27.7601 1.43412 29.1951 1.68928C30.68 1.95334 32.5657 1.00643 33.8978 1.62447C35.249 2.25102 35.6889 4.28253 36.8197 5.22174C37.9505 6.16095 40.0769 6.25613 40.9281 7.45657C41.7676 8.64 41.1136 10.6091 41.6198 11.9963C42.1091 13.3373 43.9031 14.4531 44.0264 15.9394Z" fill="#0F1011"/>
<path d="M20.7448 32.0911C21.5664 30.7343 22.4462 28.1058 22.0395 23.2255L28.671 22.0307C28.671 22.0307 27.924 29.6449 31.2481 32.0911H20.7448Z" fill="#E98862"/>
<path opacity="0.15" d="M29.9135 30.5083L24.4095 26.3915L28.7354 26.351C28.8593 27.7963 29.2588 29.2063 29.9135 30.5083Z" fill="black"/>
<path d="M18.2806 19.9162C18.737 22.5042 20.182 24.9553 22.5196 25.7933C25.0678 26.7828 27.8253 27.1489 30.5517 26.8596C37.8102 26.2849 36.3893 10.1774 32.9462 7.04712C29.503 3.91682 19.3886 5.88799 18.1536 11.1199C17.5149 13.8241 17.8444 17.453 18.2806 19.9162Z" fill="#E98862"/>
<path d="M28.6656 17.9321C28.9977 17.9321 29.267 17.6694 29.267 17.3452C29.267 17.0211 28.9977 16.7584 28.6656 16.7584C28.3335 16.7584 28.0643 17.0211 28.0643 17.3452C28.0643 17.6694 28.3335 17.9321 28.6656 17.9321Z" fill="#0F1011"/>
<path d="M33.4098 17.5566C33.7419 17.5566 34.0111 17.2939 34.0111 16.9698C34.0111 16.6457 33.7419 16.3829 33.4098 16.3829C33.0777 16.3829 32.8085 16.6457 32.8085 16.9698C32.8085 17.2939 33.0777 17.5566 33.4098 17.5566Z" fill="#0F1011"/>
<path d="M34.4531 15.7203H34.4493L32.8566 15.6993C32.7836 15.6961 32.7147 15.6655 32.6643 15.6137C32.6139 15.562 32.5861 15.4933 32.5866 15.4219C32.587 15.3506 32.6158 15.2822 32.6669 15.2311C32.7179 15.1801 32.7873 15.1503 32.8604 15.1481H32.8641L34.4568 15.1687C34.5318 15.1692 34.6034 15.1987 34.6561 15.2508C34.7087 15.3029 34.738 15.3732 34.7375 15.4464C34.7371 15.5195 34.7068 15.5895 34.6535 15.6409C34.6001 15.6922 34.528 15.7208 34.4531 15.7203Z" fill="#0F1011"/>
<path d="M27.3684 16.2813C27.2993 16.281 27.2327 16.2561 27.1812 16.2111C27.1297 16.1662 27.0968 16.1045 27.0888 16.0375C27.0808 15.9705 27.0982 15.903 27.1377 15.8477C27.1772 15.7924 27.2361 15.7532 27.3032 15.7374L28.874 15.37C28.9105 15.3604 28.9486 15.358 28.986 15.363C29.0235 15.368 29.0595 15.3803 29.092 15.3991C29.1245 15.4179 29.1529 15.4429 29.1753 15.4726C29.1977 15.5024 29.2138 15.5361 29.2226 15.572C29.2314 15.6079 29.2327 15.6452 29.2265 15.6816C29.2203 15.7179 29.2067 15.7528 29.1864 15.7839C29.1662 15.8151 29.1398 15.842 29.1087 15.863C29.0776 15.884 29.0425 15.8987 29.0055 15.9062L27.4348 16.2736C27.4131 16.2787 27.3908 16.2813 27.3684 16.2813Z" fill="#0F1011"/>
<path d="M28.9396 21.9676C28.9396 21.9676 31.1589 22.198 32.716 21.6687C32.716 21.6687 32.7023 23.0955 30.946 23.2344C29.1898 23.3733 28.9396 21.9676 28.9396 21.9676Z" fill="#F8FCFF"/>
<path d="M23.1703 13.217C23.6059 19.2815 22.9219 25.3731 21.151 31.2017C21.151 31.2017 16.0911 22.6864 15.3084 15.5968C14.5747 8.95063 19.5965 5.03097 22.9873 4.29305C35.8731 1.49405 36.8005 10.6804 36.8005 10.6804C34.453 15.4445 21.7755 15.4235 21.7755 15.4235" fill="#0F1011"/>
<path d="M25.6271 19.8721C25.6737 20.5254 25.4544 21.1703 25.0169 21.6669C24.5794 22.1635 23.9589 22.4717 23.29 22.5246C22.6212 22.5776 21.9579 22.371 21.4441 21.9497C20.9303 21.5284 20.6075 20.9264 20.5456 20.2742C20.5127 19.9475 20.5475 19.6177 20.648 19.3044C20.7485 18.9911 20.9125 18.7007 21.1304 18.4506C21.3482 18.2005 21.6154 17.9957 21.916 17.8484C22.2167 17.7012 22.5446 17.6145 22.8803 17.5935C24.6971 17.5368 25.5134 18.5027 25.6271 19.8721Z" fill="#E98862"/>
<g opacity="0.15">
<path d="M31.3315 20.6027C31.2818 20.6026 31.2338 20.5852 31.1962 20.5535C31.1586 20.5218 31.1339 20.478 31.1265 20.4301C31.1192 20.3821 31.1297 20.3332 31.1562 20.2922C31.1827 20.2512 31.2234 20.2208 31.2709 20.2066L32.4939 19.8421L31.6406 17.9823C31.6181 17.9332 31.6165 17.8775 31.6361 17.8273C31.6557 17.7771 31.695 17.7365 31.7452 17.7146C31.7955 17.6926 31.8526 17.691 31.904 17.7102C31.9555 17.7293 31.997 17.7676 32.0195 17.8166L32.9694 19.8862C32.9814 19.9124 32.9876 19.9408 32.9875 19.9695C32.9874 19.9982 32.981 20.0265 32.9689 20.0526C32.9567 20.0787 32.939 20.102 32.9169 20.121C32.8948 20.1399 32.8689 20.154 32.8408 20.1624L31.3929 20.595C31.3729 20.6005 31.3522 20.6031 31.3315 20.6027Z" fill="black"/>
</g>
<path d="M42.8743 88.4434C51.1533 124.039 58.65 159.873 64.5661 195.919L56.2497 197.588C47.1072 162.191 39.5017 126.378 32.7125 90.4834L42.8743 88.4434Z" fill="#E98862"/>
<path d="M25.7611 90.6482C26.5213 126.01 26.4666 161.452 24.8187 196.79H16.3284C14.6814 161.452 14.627 126.01 15.3864 90.6482H25.7611Z" fill="#E98862"/>
<path d="M35.8034 200.057C36.0377 200.056 36.2693 200.008 36.4837 199.915C36.6981 199.823 36.8907 199.688 37.0494 199.52C37.2081 199.352 37.3296 199.153 37.4063 198.937C37.4829 198.721 37.5131 198.492 37.4949 198.264C37.4699 197.947 37.3527 197.645 37.1572 197.391C36.9617 197.138 36.696 196.944 36.3914 196.833L26.2483 193.518C26.0518 193.454 25.8435 193.433 25.6377 193.455C25.4319 193.477 25.2335 193.543 25.0561 193.647C23.6617 194.591 21.9937 195.074 20.2974 195.024C18.976 194.932 17.7076 194.48 16.6368 193.719C16.5427 193.644 16.4286 193.596 16.3078 193.582C16.187 193.567 16.0644 193.587 15.9545 193.638C15.8445 193.688 15.7517 193.769 15.6868 193.869C15.622 193.97 15.5877 194.086 15.5881 194.205V199.046C15.5881 199.189 15.6169 199.33 15.6731 199.462C15.7292 199.594 15.8114 199.714 15.9151 199.814C16.0188 199.915 16.1419 199.995 16.2773 200.049C16.4127 200.104 16.5577 200.131 16.704 200.13L35.8034 200.057Z" fill="#C1D8ED"/>
<path d="M74.7013 200.057C74.9357 200.056 75.1673 200.008 75.3817 199.915C75.5962 199.823 75.7888 199.688 75.9475 199.52C76.1062 199.352 76.2277 199.153 76.3043 198.937C76.3809 198.721 76.4111 198.492 76.3928 198.264C76.3678 197.948 76.2507 197.645 76.0552 197.391C75.8598 197.138 75.5942 196.944 75.2898 196.833L65.1463 193.518C64.9498 193.454 64.7416 193.433 64.5358 193.455C64.3301 193.477 64.1318 193.543 63.9544 193.647C62.5599 194.591 60.8918 195.074 59.1953 195.024C57.8741 194.932 56.6058 194.48 55.5352 193.719C55.4411 193.644 55.3269 193.596 55.2061 193.582C55.0853 193.567 54.9627 193.587 54.8528 193.638C54.7428 193.689 54.6499 193.769 54.585 193.869C54.5201 193.97 54.4858 194.086 54.4861 194.205V199.046C54.4861 199.189 54.515 199.33 54.5711 199.462C54.6272 199.594 54.7095 199.714 54.8132 199.814C54.9169 199.915 55.0399 199.995 55.1753 200.049C55.3107 200.103 55.4557 200.131 55.602 200.13L74.7013 200.057Z" fill="#C1D8ED"/>
<path d="M10.1257 75.3811C10.1257 75.3811 5.41142 95.9842 5.41142 113.312C5.41142 130.639 0 157.475 0 157.475C0 157.475 15.3408 155.053 25.7474 157.475C43.6786 161.648 59.7581 152.562 59.7581 152.562L41.6978 77.283L10.1257 75.3811Z" fill="#262626"/>
<path d="M91.7328 56.0898C91.7328 56.0898 95.1394 54.4742 97.6978 55.0943C100.256 55.7144 99.0577 56.7888 97.1957 57.1712C95.3336 57.5535 91.2435 58.1752 91.2435 58.1752" fill="#E98862"/>
<path d="M93.7227 56.0124C93.7227 56.0124 100.038 55.3644 100.104 56.8476C100.104 56.8476 100.38 61.4221 99.5225 62.1297C98.2274 63.1973 91.8125 62.3613 91.8125 62.3613L93.7227 56.0124Z" fill="#E98862"/>
<path d="M77.0277 63.5731H52.3448C51.614 63.5731 50.8949 63.3937 50.2538 63.0514C49.6127 62.7092 49.0701 62.215 48.6759 61.6145L33.0798 37.8536L40.4197 33.2661L54.7301 55.068H77.0294L77.0277 63.5731Z" fill="#367CFF"/>
<path d="M43.6981 78.0679C41.9593 81.9681 7.79348 83.5881 7.33699 76.7273C7.0465 72.361 10.9889 68.5502 10.9889 60.041C10.9889 51.5319 2.96802 40.6651 9.50322 34.2863C11.3997 32.4358 14.674 31.241 18.6661 31.237C18.9649 33.5087 33.0994 33.5172 33.2073 31.2896C33.7467 31.2977 34.1659 31.3054 34.4273 31.318C48.1966 31.8971 42.1461 47.1902 42.0133 58.4251C41.8523 71.5716 45.4917 74.0502 43.6981 78.0679Z" fill="#367CFF"/>
<path d="M33.2081 31.2896C33.1002 33.5172 31.8594 36.7933 28.0291 37.0407C22.9248 37.3688 18.9658 33.5087 18.667 31.237H18.6794C23.7049 31.237 30.2783 31.2451 33.2081 31.2896Z" fill="#E98862"/>
<path d="M73.4037 83.621C87.1552 83.621 98.3029 72.7413 98.3029 59.3205C98.3029 45.8998 87.1552 35.0201 73.4037 35.0201C59.6523 35.0201 48.5045 45.8998 48.5045 59.3205C48.5045 72.7413 59.6523 83.621 73.4037 83.621Z" fill="#0CBC8B"/>
<g opacity="0.29">
<path d="M73.4038 75.0737C82.3184 75.0737 89.5451 68.0208 89.5451 59.3206C89.5451 50.6203 82.3184 43.5674 73.4038 43.5674C64.4892 43.5674 57.2625 50.6203 57.2625 59.3206C57.2625 68.0208 64.4892 75.0737 73.4038 75.0737Z" fill="white"/>
</g>
<path d="M68.1205 64.9477L69.6261 62.6687C70.8196 63.5597 71.8632 64.0166 72.9737 64.0166C74.3042 64.0166 74.8897 63.4779 74.8897 62.435C74.8897 60.0775 68.6923 60.12 68.6923 55.9853C68.6923 53.3272 70.5789 51.6343 73.5539 51.6343C74.3988 51.6224 75.2362 51.7901 76.008 52.1259C76.7798 52.4616 77.4675 52.9572 78.0233 53.5783L76.2961 55.509C75.4429 54.7517 74.7192 54.3527 73.739 54.3527C72.6094 54.3527 71.996 54.7982 71.996 55.8265C71.996 58.0136 78.1934 57.8208 78.1934 62.2005C78.1934 64.8331 76.409 66.7366 72.9729 66.7366C71.1939 66.697 69.482 66.0659 68.1205 64.9477ZM72.2496 49.3885H74.5399V52.6885H72.2492L72.2496 49.3885ZM72.2496 65.3592H74.5399V68.9799H72.2492L72.2496 65.3592Z" fill="white"/>
<path d="M99.5205 62.1329C99.4041 62.2233 99.2741 62.2955 99.135 62.3468C98.3905 62.4966 96.5143 62.0584 96.2135 61.5505C95.7238 60.7239 96.0276 57.7374 96.4596 56.6536C96.865 55.6411 98.8843 56.0651 99.1495 56.1133C99.1577 56.1161 99.1662 56.1183 99.1748 56.1198C99.7255 56.2672 100.088 56.4972 100.103 56.8508C100.103 56.8508 100.381 61.4233 99.5205 62.1329Z" fill="#E98862"/>
<path d="M44.543 64.8938C44.543 64.8938 45.5427 59.5664 49.4045 60.4934C51.8409 61.0787 58.9218 60.0346 59.0293 63.0879C59.1227 65.7375 52.4725 66.4438 50.2731 66.2231C48.299 66.025 44.543 64.8938 44.543 64.8938Z" fill="#E98862"/>
<path d="M47.9902 60.4347C47.9902 60.4347 53.7349 59.6077 55.018 60.1403C56.1543 60.6113 53.3581 62.0843 53.3581 62.0843L47.9902 60.4347Z" fill="#E98862"/>
<path d="M49.8279 67.8524L24.1485 67.0878C23.347 67.064 22.5664 66.8327 21.8866 66.4176C21.2069 66.0024 20.6524 65.4184 20.28 64.7254L7.60132 41.1317L15.6147 37.0302L27.0658 58.3396L50.1038 59.0257L49.8279 67.8524Z" fill="#367CFF"/>
<path d="M195.434 196.618L204.088 195.614C203.698 192.417 203.258 188.577 203.228 187.947C203.228 187.988 203.228 188.021 203.228 188.047H194.513C194.515 188.302 194.515 189.078 195.434 196.618Z" fill="#E98862"/>
<path d="M230.159 197.635L238.873 197.607C238.873 197.607 238.844 188.825 238.844 188.047H230.13C230.13 188.827 230.159 197.635 230.159 197.635Z" fill="#E98862"/>
<path d="M192.219 193.677C192.94 175.854 192.984 157.133 193.21 139.262C196.206 119.986 197.783 98.8451 201.482 79.7053L201.593 79.7369L201.917 77.5786L233.488 75.6751L234.599 95.8039C236.188 122.769 239.26 166.119 241.119 193.446L225.819 194.711C223.086 167.835 219.046 125.02 216.576 98.5309C213.867 112.028 210.897 127.228 208.49 140.886C207.964 158.333 207.524 176.514 207.571 193.933L192.219 193.677Z" fill="#262626"/>
<path d="M219.564 200.924C219.33 200.923 219.098 200.875 218.884 200.782C218.67 200.69 218.477 200.555 218.318 200.387C218.159 200.219 218.038 200.021 217.961 199.804C217.885 199.588 217.855 199.359 217.873 199.131C217.898 198.815 218.015 198.512 218.211 198.259C218.406 198.006 218.672 197.812 218.976 197.702L229.119 194.386C229.316 194.322 229.524 194.301 229.73 194.323C229.936 194.346 230.134 194.411 230.311 194.515C231.706 195.46 233.374 195.942 235.07 195.892C236.392 195.801 237.66 195.349 238.731 194.588C238.825 194.512 238.939 194.464 239.06 194.45C239.181 194.436 239.303 194.455 239.413 194.506C239.523 194.557 239.616 194.637 239.681 194.738C239.746 194.838 239.78 194.955 239.78 195.074V199.915C239.78 200.058 239.751 200.2 239.695 200.331C239.638 200.463 239.556 200.583 239.452 200.684C239.349 200.785 239.226 200.864 239.09 200.919C238.955 200.973 238.81 201.001 238.664 201L219.564 200.924Z" fill="#C1D8ED"/>
<path d="M184.816 200.924C184.582 200.923 184.35 200.875 184.136 200.782C183.921 200.69 183.729 200.555 183.57 200.387C183.411 200.219 183.29 200.021 183.213 199.804C183.136 199.588 183.106 199.359 183.124 199.131C183.15 198.815 183.267 198.512 183.463 198.259C183.658 198.006 183.924 197.813 184.228 197.702L194.371 194.386C194.568 194.322 194.776 194.301 194.982 194.323C195.188 194.346 195.386 194.411 195.563 194.515C196.958 195.46 198.626 195.942 200.322 195.892C201.644 195.801 202.912 195.349 203.982 194.588C204.077 194.512 204.191 194.464 204.311 194.45C204.432 194.436 204.555 194.455 204.665 194.506C204.775 194.557 204.868 194.637 204.932 194.738C204.997 194.838 205.032 194.955 205.031 195.074V199.915C205.031 200.058 205.002 200.2 204.946 200.331C204.89 200.463 204.808 200.583 204.704 200.684C204.601 200.785 204.478 200.864 204.342 200.919C204.207 200.973 204.062 201.001 203.916 201L184.816 200.924Z" fill="#C1D8ED"/>
<path d="M221.36 105.073V131.38C221.36 132.44 221.792 133.456 222.56 134.206C223.327 134.955 224.369 135.376 225.455 135.376H267.906C268.992 135.376 270.033 134.955 270.801 134.206C271.569 133.456 272 132.44 272 131.38V105.073C272 104.013 271.569 102.996 270.801 102.247C270.033 101.498 268.992 101.077 267.906 101.077H256.686V98.3004C256.685 97.3101 256.281 96.3607 255.563 95.6604C254.846 94.9601 253.873 94.5662 252.858 94.565H240.502C239.487 94.5662 238.514 94.9601 237.797 95.6604C237.079 96.3607 236.676 97.3101 236.674 98.3004V101.077H225.455C224.369 101.077 223.327 101.498 222.56 102.247C221.792 102.996 221.36 104.013 221.36 105.073ZM254.196 101.077H239.164V98.3004C239.165 97.9544 239.306 97.6226 239.556 97.3779C239.807 97.1332 240.147 96.9955 240.502 96.9951H252.858C253.213 96.9955 253.553 97.1332 253.804 97.3779C254.054 97.6226 254.195 97.9544 254.196 98.3004V101.077Z" fill="#0CBC8B"/>
<path d="M164.086 67.0351C162.882 67.3101 158.707 67.6102 158.659 68.6738C158.63 69.3117 161.8 69.3323 161.8 69.3323" fill="#E98862"/>
<path d="M161.732 74.8601C166.709 73.7223 170.413 71.4206 170.005 69.719C169.596 68.0175 165.23 67.5604 160.253 68.6982C155.276 69.836 151.572 72.1378 151.981 73.8393C152.389 75.5409 156.755 75.9979 161.732 74.8601Z" fill="#E98862"/>
<path d="M242.759 89.4628C242.759 90.6697 242.106 94.7048 243.156 94.9931C243.785 95.1657 244.53 92.1581 244.53 92.1581" fill="#E98862"/>
<path d="M247.717 88.8293C247.717 88.8293 251.269 92.5643 248.854 96.9951C248.519 97.6095 245.255 97.9703 245.255 97.2174C245.255 94.0584 245.004 91.5805 242.872 92.3379V87.2494" fill="#E98862"/>
<path d="M185.748 58.0602L201.201 35.5228L201.293 35.5823C202.62 33.6055 204.901 32.3422 208.668 32.1851C208.93 32.1729 209.349 32.1648 209.889 32.1567C209.996 34.3843 224.13 34.3762 224.43 32.1041C228.421 32.1081 231.696 33.3029 233.593 35.1538C234.474 36.0059 235.151 37.039 235.573 38.178L235.623 38.1561L245.654 60.1982C245.828 60.5811 245.946 60.9863 246.003 61.4015L249.9 89.6827L240.933 90.8596L237.123 63.205L233.171 54.5192C232.537 56.5955 232.18 58.7428 232.108 60.9082C232.108 69.4174 236.051 73.2285 235.76 77.5945C235.304 84.4553 201.138 82.8352 199.399 78.935C197.606 74.9174 201.246 72.4387 201.084 59.2922C201.019 56.9851 200.831 54.6827 200.522 52.3945L192.441 64.1802C191.903 64.9653 191.121 65.5614 190.21 65.8813L164.914 74.7509L161.855 66.4394L185.748 58.0602Z" fill="#367CFF"/>
<path d="M209.89 32.1576C209.997 34.3851 211.239 37.6616 215.069 37.9087C220.173 38.2367 224.132 34.377 224.431 32.1049H224.418C219.393 32.1041 212.82 32.1122 209.89 32.1576Z" fill="#E98862"/>
<path d="M220.911 26.8479C220.896 25.9342 220.929 25.0204 221.01 24.11C219.896 23.9075 215.569 23.1267 214.379 22.9112C214.609 23.7054 214.401 29.7113 213.134 31.3799C212.819 31.9787 212.378 32.5058 211.839 32.927H222.267C221.62 31.8416 220.956 29.9705 220.911 26.8479Z" fill="#E98862"/>
<path opacity="0.15" d="M213.129 31.3856L218.636 27.2732L214.311 27.2294C214.185 28.6746 213.785 30.0842 213.129 31.3856Z" fill="black"/>
<path d="M224.771 20.8036C223.927 26.8884 217.912 28.1905 212.494 27.7361C205.236 27.1553 206.672 11.0498 210.117 7.92073C213.563 4.79165 223.678 6.77334 224.907 12.006C225.543 14.7123 225.208 18.3407 224.771 20.8036Z" fill="#E98862"/>
<path d="M205.041 6.42544C205.036 4.2789 207.785 0.784098 215.054 5.61947C219.04 5.69035 221.352 5.89731 224.284 8.03291C230.73 12.328 225.129 25.803 221.251 26.7552C220.855 26.9856 220.758 26.7981 220.621 26.3676C220.188 24.7767 219.878 23.1563 219.694 21.52C219.457 19.819 217.891 18.7376 218.08 16.7005C218.146 15.9885 219.321 13.3794 215.685 13.3498C207.747 13.867 204.151 12.6698 205.041 6.42544Z" fill="#0F1011"/>
<path d="M217.517 19.6598C217.199 22.8728 222.376 23.2875 222.598 20.0648C222.979 16.7478 217.437 16.5125 217.517 19.6598Z" fill="#E98862"/>
<path d="M218.636 11.7679L220.514 12.4386C219.941 13.9744 220.952 28.165 215.663 28.3626C208.564 29.2204 207.29 27.1282 207.556 21.6598C218.429 22.8634 217.615 21.3439 218.636 11.7679Z" fill="#0F1011"/>
<path d="M213.79 18.1759C213.782 18.3282 213.835 18.4776 213.938 18.5923C214.041 18.7071 214.186 18.7782 214.341 18.7906C214.497 18.803 214.652 18.7558 214.772 18.6589C214.893 18.562 214.97 18.423 214.988 18.2715C214.996 18.1192 214.943 17.9698 214.84 17.8551C214.737 17.7403 214.592 17.6692 214.436 17.6568C214.281 17.6443 214.126 17.6916 214.005 17.7885C213.885 17.8854 213.807 18.0243 213.79 18.1759Z" fill="#0F1011"/>
<path d="M209.046 17.796C209.035 17.9499 209.087 18.1016 209.19 18.2185C209.293 18.3354 209.439 18.408 209.597 18.4206C209.754 18.4332 209.91 18.3848 210.031 18.2859C210.153 18.187 210.229 18.0455 210.244 17.892C210.255 17.7381 210.203 17.5864 210.1 17.4695C209.997 17.3526 209.851 17.28 209.694 17.2674C209.536 17.2548 209.38 17.3032 209.259 17.4021C209.137 17.501 209.061 17.6425 209.046 17.796Z" fill="#0F1011"/>
<path d="M208.603 16.5935C208.603 16.5935 210.198 16.5737 210.199 16.5741C210.273 16.5706 210.341 16.5396 210.392 16.4876C210.442 16.4356 210.469 16.3666 210.468 16.2952C210.467 16.2238 210.438 16.1555 210.387 16.1047C210.335 16.0539 210.266 16.0246 210.192 16.0229L208.6 16.0423C208.527 16.0455 208.458 16.0762 208.407 16.1279C208.357 16.1796 208.329 16.2483 208.33 16.3197C208.33 16.391 208.359 16.4594 208.41 16.5105C208.461 16.5616 208.53 16.5913 208.603 16.5935Z" fill="#0F1011"/>
<path d="M215.687 17.1601C216.83 16.6182 214.433 16.3562 214.182 16.2477C214.11 16.2324 214.034 16.2454 213.972 16.2837C213.909 16.322 213.865 16.3827 213.847 16.4528C213.83 16.5229 213.842 16.5968 213.88 16.6587C213.917 16.7205 213.979 16.7655 214.05 16.7839C214.128 16.7936 215.605 17.1654 215.687 17.1601Z" fill="#0F1011"/>
<g opacity="0.15">
<path d="M211.72 21.4787C212.573 21.1037 210.724 20.8182 210.558 20.7161L211.413 18.8567C211.255 17.5939 210.187 20.7019 210.085 20.7602C209.889 21.1705 211.534 21.3548 211.72 21.4787Z" fill="black"/>
</g>
<path d="M214.111 22.8456C214.111 22.8456 211.891 23.074 210.334 22.5435C210.27 24.4057 213.869 24.6868 214.111 22.8456Z" fill="#F8FCFF"/>
<path d="M177.503 35.0307C184.86 35.0307 190.824 29.2104 190.824 22.0308C190.824 14.8511 184.86 9.03085 177.503 9.03085C170.147 9.03085 164.183 14.8511 164.183 22.0308C164.183 29.2104 170.147 35.0307 177.503 35.0307Z" fill="#8DDBE0"/>
<path d="M175.539 27.3611C175.31 27.361 175.09 27.2757 174.924 27.1225L170.57 23.1129C170.484 23.034 170.415 22.9394 170.367 22.8345C170.319 22.7295 170.292 22.6164 170.289 22.5014C170.285 22.3865 170.305 22.272 170.347 22.1645C170.389 22.057 170.452 21.9587 170.533 21.875C170.614 21.7914 170.711 21.7241 170.819 21.6771C170.926 21.63 171.042 21.6041 171.16 21.6007C171.278 21.5974 171.395 21.6168 171.505 21.6577C171.615 21.6986 171.716 21.7603 171.802 21.8392L175.49 25.236L183.16 16.9872C183.321 16.8221 183.543 16.7252 183.777 16.7171C184.01 16.7091 184.238 16.7905 184.412 16.944C184.585 17.0975 184.69 17.311 184.704 17.539C184.718 17.7669 184.641 17.9912 184.488 18.1642L176.203 27.0743C176.123 27.1605 176.026 27.2302 175.917 27.2795C175.809 27.3287 175.692 27.3564 175.573 27.3611H175.539Z" fill="white"/>
</g>
<defs>
<clipPath id="clip0_2_427">
<rect width="272" height="201" fill="white"/>
</clipPath>
</defs>
</svg>
