<svg width="304" height="239" viewBox="0 0 304 239" fill="none" xmlns="http://www.w3.org/2000/svg">
<g clip-path="url(#clip0_3_517)">
<path d="M124.103 208.302C123.635 209.025 122.927 209.56 122.103 209.814C121.74 209.932 121.363 210 120.982 210.016C120.895 210.019 120.809 210.018 120.723 210.012C120.645 210.014 120.568 210.011 120.491 210.002C120.414 209.991 120.342 209.978 120.288 209.973C120.232 209.963 120.176 209.949 120.122 209.931C120.093 209.924 120.064 209.916 120.036 209.906C120.005 209.894 120.025 209.906 120.018 209.902C119.999 209.893 120.066 209.913 120.104 209.91H120.136H120.011L119.732 209.906C119.41 209.893 119.089 209.943 118.787 210.054C118.691 210.091 118.613 210.162 118.567 210.254C118.52 210.345 118.51 210.451 118.538 210.55L118.944 208.891C118.928 208.795 118.94 208.696 118.978 208.607C119.017 208.517 119.081 208.441 119.163 208.388C119.382 208.266 119.629 208.203 119.88 208.205H120.087H120.183L120.204 208.209C120.238 208.211 120.272 208.216 120.306 208.223C120.357 208.237 120.395 208.236 120.458 208.256L120.639 208.306C121.017 208.399 121.414 208.363 121.768 208.205C122.123 208.048 122.415 207.777 122.599 207.435C122.7 207.232 122.754 207.008 122.757 206.78C122.76 206.553 122.712 206.328 122.616 206.122C122.519 205.916 122.378 205.734 122.202 205.59C122.026 205.446 121.819 205.343 121.598 205.289C121.35 205.211 121.097 205.149 120.842 205.103C120.692 205.075 120.54 205.057 120.388 205.049L120.269 205.04C120.255 205.039 120.24 205.039 120.225 205.04L120.152 205.043C120.055 205.051 119.962 205.09 119.889 205.155C119.855 205.19 119.829 205.231 119.812 205.277C119.795 205.322 119.788 205.371 119.79 205.419L120.298 203.332L120.486 203.343C120.701 203.355 120.916 203.38 121.128 203.418C121.304 203.452 121.511 203.489 121.659 203.531L122.116 203.661C122.279 203.713 122.439 203.776 122.595 203.847C122.738 203.909 122.876 203.982 123.007 204.066C123.132 204.144 123.252 204.225 123.365 204.31C123.479 204.395 123.568 204.485 123.66 204.576C123.839 204.749 123.995 204.944 124.123 205.156C124.246 205.352 124.346 205.561 124.421 205.78C124.56 206.197 124.604 206.64 124.549 207.077C124.494 207.513 124.342 207.932 124.103 208.302Z" fill="#0F1011"/>
<path d="M131.478 209.581C132.081 210.062 132.677 210.547 133.268 211.035L132.176 212.35C131.593 211.868 131.004 211.39 130.411 210.916C130.247 210.782 130.059 210.682 129.856 210.621C129.653 210.561 129.44 210.542 129.23 210.564C129.02 210.587 128.816 210.651 128.631 210.754C128.446 210.856 128.283 210.994 128.152 211.16C127.899 211.495 127.786 211.915 127.839 212.331C127.891 212.748 128.105 213.127 128.433 213.389C129.009 213.849 129.582 214.314 130.153 214.786L129.061 216.103C128.498 215.638 127.933 215.179 127.366 214.727C126.693 214.182 126.255 213.4 126.142 212.542C126.03 211.684 126.251 210.816 126.76 210.116C127.028 209.763 127.365 209.468 127.751 209.248C128.137 209.029 128.563 208.89 129.004 208.84C129.445 208.79 129.892 208.83 130.317 208.957C130.742 209.085 131.137 209.297 131.478 209.581Z" fill="#0F1011"/>
<path d="M128.289 212.35C127.198 211.499 126.095 210.665 124.964 209.888C123.87 209.11 122.709 208.429 121.495 207.854C121.299 207.759 121.144 207.597 121.057 207.398C120.97 207.199 120.957 206.975 121.021 206.767C121.058 206.655 121.119 206.551 121.199 206.464C121.28 206.377 121.379 206.309 121.488 206.263C121.598 206.218 121.716 206.196 121.835 206.201C121.954 206.205 122.07 206.235 122.177 206.288C123.492 206.906 124.75 207.64 125.934 208.481C127.107 209.287 128.234 210.139 129.345 211.007C129.436 211.075 129.511 211.161 129.568 211.259C129.625 211.357 129.662 211.465 129.676 211.578C129.691 211.69 129.683 211.804 129.652 211.913C129.622 212.022 129.571 212.124 129.501 212.213C129.431 212.303 129.344 212.377 129.244 212.432C129.145 212.487 129.036 212.522 128.923 212.535C128.811 212.548 128.697 212.538 128.588 212.506C128.479 212.474 128.377 212.421 128.289 212.35Z" fill="#0F1011"/>
<path d="M135.416 217.209C134.831 217.858 134.016 218.253 133.143 218.31C132.27 218.368 131.41 218.083 130.744 217.517C130.186 217.037 129.624 216.573 129.063 216.104L130.155 214.786C130.723 215.261 131.294 215.731 131.855 216.216C132.176 216.49 132.592 216.628 133.013 216.599C133.434 216.571 133.827 216.379 134.108 216.064C134.245 215.904 134.349 215.718 134.413 215.518C134.477 215.317 134.501 215.106 134.483 214.896C134.465 214.687 134.406 214.483 134.308 214.296C134.21 214.11 134.077 213.944 133.915 213.81C133.343 213.317 132.759 212.835 132.178 212.35L133.27 211.035C133.857 211.526 134.449 212.013 135.025 212.511C135.364 212.791 135.643 213.136 135.847 213.525C136.05 213.914 136.174 214.34 136.21 214.778C136.247 215.215 136.195 215.656 136.059 216.073C135.923 216.491 135.704 216.877 135.416 217.209Z" fill="#0F1011"/>
<path d="M142.445 219.063C142.967 219.519 143.516 219.911 144.048 220.341L143.025 221.709C142.466 221.26 141.887 220.843 141.342 220.369C141.022 220.101 140.61 219.966 140.193 219.995C139.776 220.023 139.386 220.212 139.105 220.521C138.965 220.681 138.859 220.868 138.793 221.07C138.727 221.272 138.702 221.485 138.72 221.696C138.738 221.908 138.799 222.114 138.898 222.302C138.997 222.49 139.133 222.656 139.298 222.79C139.883 223.297 140.517 223.761 141.126 224.247L140.103 225.615C139.467 225.108 138.802 224.623 138.195 224.095C137.846 223.817 137.557 223.471 137.347 223.077C137.137 222.684 137.01 222.252 136.975 221.807C136.939 221.363 136.995 220.916 137.139 220.494C137.283 220.073 137.512 219.685 137.813 219.355C138.404 218.73 139.211 218.352 140.071 218.298C140.931 218.244 141.78 218.517 142.445 219.063Z" fill="#0F1011"/>
<path d="M139.177 221.717L138.373 221.015L137.598 220.314L136.046 218.915C135.009 217.987 133.964 217.069 132.91 216.161C132.821 216.089 132.748 216 132.695 215.899C132.641 215.799 132.609 215.688 132.599 215.574C132.589 215.461 132.602 215.346 132.637 215.238C132.672 215.129 132.728 215.029 132.803 214.943C132.878 214.856 132.969 214.786 133.071 214.735C133.173 214.684 133.285 214.654 133.399 214.647C133.513 214.64 133.627 214.656 133.735 214.694C133.843 214.732 133.942 214.791 134.027 214.867C135.09 215.783 136.144 216.708 137.188 217.643L138.749 219.051L139.527 219.756L140.303 220.43C140.474 220.581 140.579 220.792 140.596 221.019C140.614 221.246 140.542 221.471 140.396 221.646C140.321 221.732 140.231 221.803 140.128 221.853C140.026 221.903 139.915 221.933 139.802 221.939C139.688 221.946 139.574 221.929 139.467 221.891C139.36 221.853 139.261 221.794 139.177 221.717Z" fill="#0F1011"/>
<path d="M146.861 225.863C146.685 226.266 146.418 226.622 146.082 226.906C145.746 227.189 145.349 227.392 144.922 227.498C144.47 227.62 143.996 227.641 143.535 227.56C143.044 227.468 142.573 227.288 142.147 227.028C141.791 226.807 141.459 226.562 141.115 226.33C140.771 226.097 140.425 225.865 140.104 225.614L141.127 224.246C141.435 224.486 141.77 224.699 142.09 224.926C142.41 225.153 142.73 225.382 143.068 225.59C143.246 225.709 143.447 225.792 143.658 225.831C143.869 225.871 144.087 225.867 144.296 225.819C144.506 225.772 144.703 225.682 144.877 225.555C145.051 225.429 145.196 225.268 145.305 225.083C145.508 224.722 145.566 224.299 145.467 223.897C145.369 223.496 145.121 223.147 144.775 222.92C144.475 222.736 144.189 222.52 143.896 222.323C143.606 222.116 143.307 221.929 143.025 221.708L144.048 220.339C144.316 220.55 144.597 220.724 144.87 220.919C145.146 221.105 145.417 221.31 145.696 221.481C146.036 221.684 146.326 221.962 146.544 222.292C146.765 222.618 146.932 222.977 147.038 223.356C147.267 224.187 147.205 225.072 146.861 225.863Z" fill="#0F1011"/>
<path d="M153.214 224.043C153.495 224.043 153.772 224.012 154.055 224.004C154.337 223.995 154.613 223.925 154.895 223.895L155.184 225.577C154.856 225.616 154.531 225.69 154.202 225.705C153.873 225.72 153.545 225.753 153.216 225.75C153.022 225.748 152.83 225.784 152.651 225.857C152.472 225.93 152.309 226.038 152.173 226.174C151.861 226.444 151.66 226.819 151.609 227.228C151.583 227.439 151.603 227.653 151.667 227.856C151.732 228.059 151.84 228.245 151.983 228.403C152.313 228.727 152.756 228.911 153.219 228.916C153.638 228.916 154.057 228.878 154.476 228.858C154.895 228.839 155.306 228.751 155.721 228.697L156.011 230.38C155.549 230.441 155.092 230.532 154.624 230.56C154.156 230.587 153.688 230.625 153.221 230.623C152.671 230.619 152.127 230.504 151.623 230.285C151.18 230.079 150.782 229.786 150.455 229.423C150.171 229.079 149.972 228.673 149.875 228.238C149.778 227.803 149.785 227.351 149.896 226.92C150.112 226.098 150.59 225.369 151.258 224.842C151.537 224.591 151.858 224.391 152.206 224.252C152.523 224.11 152.867 224.039 153.214 224.043Z" fill="#0F1011"/>
<path d="M152.399 228.158C150.921 228.062 149.465 227.763 148.07 227.267C146.701 226.772 145.386 226.142 144.143 225.384C144.043 225.329 143.955 225.254 143.885 225.164C143.815 225.074 143.764 224.97 143.735 224.86C143.707 224.749 143.701 224.634 143.718 224.521C143.735 224.409 143.776 224.301 143.836 224.204C143.959 224.014 144.151 223.878 144.371 223.825C144.592 223.772 144.824 223.806 145.021 223.918C146.166 224.617 147.378 225.2 148.639 225.657C149.882 226.099 151.181 226.367 152.498 226.453C152.721 226.47 152.93 226.571 153.082 226.735C153.234 226.898 153.319 227.113 153.319 227.336C153.317 227.452 153.292 227.566 153.243 227.671C153.195 227.777 153.126 227.871 153.039 227.948C152.953 228.025 152.851 228.084 152.741 228.12C152.631 228.156 152.514 228.169 152.399 228.158Z" fill="#0F1011"/>
<path d="M160.689 225.229C160.905 225.614 161.03 226.042 161.057 226.482C161.083 226.922 161.009 227.363 160.841 227.771C160.654 228.205 160.379 228.595 160.032 228.917C159.84 229.085 159.633 229.236 159.413 229.368C159.183 229.512 158.935 229.625 158.676 229.704C157.806 229.997 156.915 230.223 156.01 230.38L155.721 228.697C156.539 228.554 157.345 228.35 158.131 228.085C158.347 228.016 158.546 227.904 158.717 227.755C158.887 227.606 159.025 227.424 159.122 227.22C159.212 227.03 159.259 226.823 159.26 226.613C159.262 226.402 159.217 226.195 159.13 226.004C158.955 225.625 158.648 225.323 158.266 225.154C157.906 224.991 157.499 224.967 157.122 225.086C156.489 225.3 155.841 225.465 155.183 225.579L154.894 223.897C155.465 223.796 156.028 223.653 156.577 223.467C156.752 223.417 156.93 223.377 157.11 223.347C157.292 223.323 157.477 223.319 157.661 223.337C158.05 223.359 158.432 223.446 158.791 223.596C159.594 223.904 160.265 224.481 160.689 225.229Z" fill="#0F1011"/>
<path d="M164.178 218.937L165.086 218.264L166.021 217.581L167.024 218.965C166.401 219.411 165.798 219.864 165.199 220.308C165.029 220.43 164.885 220.586 164.775 220.764C164.666 220.943 164.593 221.142 164.561 221.349C164.529 221.556 164.538 221.767 164.589 221.971C164.639 222.174 164.73 222.366 164.855 222.534C164.98 222.702 165.138 222.844 165.318 222.951C165.499 223.058 165.699 223.128 165.907 223.157C166.115 223.186 166.327 223.174 166.53 223.121C166.733 223.068 166.924 222.975 167.091 222.848C167.695 222.401 168.288 221.955 168.882 221.53L169.885 222.914L169.008 223.556L168.112 224.219C167.386 224.759 166.478 224.992 165.582 224.87C165.149 224.811 164.733 224.662 164.361 224.433C163.989 224.203 163.67 223.898 163.424 223.537C162.936 222.817 162.742 221.938 162.88 221.08C163.012 220.223 163.479 219.452 164.178 218.937Z" fill="#0F1011"/>
<path d="M166.034 222.722C163.781 224.385 161.406 226.053 158.66 227.117C158.553 227.163 158.438 227.187 158.322 227.186C158.206 227.185 158.091 227.161 157.985 227.113C157.879 227.066 157.784 226.997 157.706 226.912C157.628 226.826 157.568 226.725 157.532 226.615C157.465 226.403 157.48 226.173 157.574 225.972C157.668 225.77 157.834 225.611 158.039 225.526C160.525 224.565 162.787 222.998 165.016 221.349C165.106 221.278 165.209 221.225 165.32 221.195C165.43 221.165 165.546 221.157 165.66 221.172C165.774 221.187 165.883 221.225 165.982 221.283C166.081 221.342 166.167 221.419 166.235 221.511C166.303 221.604 166.352 221.708 166.379 221.82C166.405 221.931 166.409 222.047 166.39 222.16C166.371 222.273 166.33 222.381 166.268 222.477C166.206 222.574 166.126 222.657 166.031 222.722H166.034Z" fill="#0F1011"/>
<path d="M172.745 217.377C173.056 218.17 173.107 219.042 172.891 219.867C172.799 220.242 172.642 220.598 172.427 220.919C172.207 221.245 171.923 221.523 171.593 221.736C171.314 221.915 171.034 222.1 170.747 222.303C170.463 222.497 170.176 222.7 169.883 222.912L168.881 221.528C169.177 221.31 169.474 221.1 169.771 220.898C170.067 220.688 170.364 220.492 170.662 220.301C171.001 220.078 171.243 219.733 171.336 219.338C171.435 218.932 171.38 218.504 171.18 218.137C171.08 217.953 170.94 217.792 170.772 217.666C170.604 217.54 170.41 217.452 170.204 217.407C169.988 217.36 169.765 217.356 169.548 217.397C169.33 217.437 169.123 217.521 168.938 217.642C168.607 217.856 168.278 218.072 167.965 218.295C167.652 218.518 167.329 218.737 167.022 218.962L166.02 217.578C166.332 217.349 166.656 217.12 166.99 216.891C167.314 216.661 167.659 216.435 168.009 216.209C168.43 215.935 168.902 215.749 169.397 215.661C169.866 215.579 170.346 215.593 170.809 215.702C171.243 215.805 171.645 216.012 171.982 216.303C172.319 216.595 172.581 216.963 172.745 217.377Z" fill="#0F1011"/>
<path d="M180.282 213.81C181.343 214.197 182.329 214.765 183.196 215.488L182.108 216.806C181.393 216.207 180.58 215.737 179.704 215.417C179.452 215.321 179.181 215.285 178.913 215.311C178.675 215.325 178.445 215.397 178.241 215.521C178.057 215.63 177.902 215.782 177.79 215.963C177.677 216.145 177.611 216.351 177.596 216.564C177.569 216.973 177.671 217.381 177.888 217.729C177.982 217.88 178.094 218.019 178.221 218.143C178.342 218.25 178.481 218.336 178.632 218.396C179.165 218.593 179.659 218.882 180.091 219.249L179.003 220.566C178.723 220.324 178.401 220.133 178.053 220.003C178.005 219.987 177.96 219.965 177.918 219.936C177.87 219.913 177.824 219.885 177.78 219.854C177.734 219.822 177.693 219.778 177.646 219.737C177.593 219.698 177.543 219.655 177.497 219.608C177.446 219.558 177.399 219.504 177.35 219.446C177.3 219.387 177.239 219.337 177.185 219.275C177.074 219.156 176.972 219.002 176.855 218.862C176.609 218.547 176.399 218.206 176.227 217.845C176.033 217.454 175.908 217.033 175.858 216.599C175.797 216.152 175.853 215.696 176.022 215.277C176.192 214.859 176.468 214.491 176.823 214.212C177.024 214.053 177.246 213.924 177.483 213.829C177.61 213.774 177.74 213.726 177.872 213.684C178.014 213.649 178.159 213.621 178.305 213.6C178.457 213.578 178.609 213.563 178.767 213.554C178.931 213.553 179.095 213.561 179.258 213.579C179.429 213.595 179.599 213.621 179.766 213.656C179.939 213.699 180.111 213.75 180.282 213.81Z" fill="#0F1011"/>
<path d="M178.245 217.529C176.991 217.31 175.704 217.371 174.477 217.709C173.211 218.055 172.005 218.59 170.898 219.295C170.705 219.409 170.474 219.446 170.255 219.396C170.035 219.347 169.843 219.215 169.718 219.028C169.656 218.931 169.614 218.823 169.595 218.71C169.576 218.596 169.58 218.48 169.608 218.369C169.635 218.257 169.685 218.152 169.754 218.06C169.823 217.969 169.911 217.892 170.01 217.835C171.266 217.038 172.636 216.436 174.073 216.049C174.801 215.869 175.544 215.753 176.293 215.703C177.069 215.65 177.85 215.703 178.613 215.862C178.737 215.885 178.855 215.935 178.958 216.007C179.061 216.08 179.148 216.174 179.212 216.283C179.269 216.381 179.304 216.492 179.313 216.605C179.321 216.719 179.304 216.833 179.263 216.939C179.18 217.147 179.028 217.321 178.832 217.43C178.654 217.532 178.446 217.567 178.245 217.529Z" fill="#0F1011"/>
<path d="M185.08 221.952C184.806 222.303 184.449 222.582 184.042 222.765C183.635 222.947 183.189 223.027 182.744 222.998C181.801 222.936 180.918 222.516 180.274 221.826C179.88 221.378 179.455 220.957 179.004 220.567L180.092 219.249C180.605 219.689 181.087 220.163 181.534 220.668C181.675 220.826 181.845 220.954 182.036 221.045C182.227 221.136 182.434 221.188 182.646 221.198C182.857 221.208 183.068 221.175 183.267 221.102C183.465 221.03 183.647 220.918 183.802 220.774C184.104 220.482 184.28 220.083 184.292 219.663C184.305 219.243 184.152 218.835 183.868 218.525C183.323 217.911 182.735 217.335 182.109 216.802L183.197 215.485C183.884 216.066 184.529 216.695 185.127 217.367C185.41 217.665 185.628 218.017 185.768 218.403C185.908 218.789 185.966 219.199 185.939 219.608C185.919 220.015 185.841 220.417 185.707 220.802C185.566 221.218 185.354 221.608 185.08 221.952Z" fill="#0F1011"/>
<path d="M191.397 220.941C191.689 220.968 191.999 220.966 192.299 220.984L193.238 220.969L193.313 222.675L192.278 222.691C191.94 222.673 191.596 222.674 191.262 222.643C190.873 222.617 190.488 222.737 190.183 222.981C189.853 223.236 189.625 223.6 189.538 224.008C189.496 224.214 189.499 224.427 189.55 224.632C189.6 224.836 189.695 225.027 189.828 225.19C189.973 225.367 190.153 225.512 190.357 225.616C190.561 225.721 190.784 225.783 191.013 225.798C191.424 225.834 191.831 225.836 192.24 225.855L193.452 225.836L193.526 227.542L192.219 227.563C191.771 227.543 191.332 227.539 190.878 227.5C190.356 227.467 189.848 227.323 189.386 227.078C188.924 226.833 188.52 226.494 188.2 226.082C187.932 225.721 187.761 225.298 187.702 224.853C187.644 224.408 187.7 223.955 187.865 223.537C188.182 222.755 188.715 222.079 189.402 221.588C189.964 221.134 190.674 220.903 191.397 220.941Z" fill="#0F1011"/>
<path d="M190.259 224.992C188.756 224.811 187.303 224.338 185.982 223.599C184.708 222.832 183.565 221.869 182.594 220.744C182.44 220.578 182.358 220.358 182.367 220.131C182.375 219.905 182.474 219.691 182.64 219.538C182.807 219.384 183.028 219.302 183.255 219.311C183.481 219.319 183.695 219.418 183.85 219.584C184.703 220.581 185.71 221.436 186.834 222.118C187.105 222.284 187.398 222.41 187.684 222.55C187.982 222.663 188.273 222.794 188.584 222.88C189.204 223.072 189.839 223.212 190.482 223.298C190.703 223.328 190.905 223.441 191.045 223.614C191.186 223.788 191.254 224.008 191.236 224.231C191.225 224.346 191.19 224.457 191.135 224.559C191.079 224.66 191.003 224.749 190.911 224.821C190.82 224.892 190.715 224.944 190.603 224.973C190.49 225.003 190.373 225.009 190.259 224.992Z" fill="#0F1011"/>
<path d="M248.926 233.518L238.337 232.261C238.814 228.262 239.353 223.457 239.389 222.669C239.389 222.72 239.389 222.762 239.389 222.793H250.053C250.049 223.113 250.049 224.084 248.926 233.518Z" fill="#E98862"/>
<path d="M206.434 234.79L195.77 234.755C195.77 234.755 195.806 223.767 195.806 222.793H206.469C206.469 223.769 206.434 234.79 206.434 234.79Z" fill="#E98862"/>
<path d="M234.073 230.158L252.859 229.838C251.976 207.526 251.922 184.122 251.647 161.757C247.981 137.65 246.049 111.178 241.524 87.2435L241.388 87.2831L240.992 84.5827L202.359 82.2011C202.359 82.2011 195.316 194.517 193.021 229.551L211.744 231.13C215.117 196.781 220.337 146.732 223.548 110.648C227.235 128.216 229.743 146.406 232.95 163.824C233.591 185.628 234.133 208.42 234.073 230.158Z" fill="#262626"/>
<path d="M219.397 238.905C219.684 238.904 219.967 238.844 220.23 238.728C220.492 238.613 220.728 238.444 220.922 238.234C221.116 238.023 221.265 237.775 221.359 237.505C221.452 237.234 221.489 236.947 221.467 236.662C221.436 236.267 221.293 235.888 221.054 235.571C220.814 235.255 220.49 235.013 220.117 234.874L207.705 230.725C207.464 230.646 207.21 230.619 206.958 230.647C206.706 230.675 206.464 230.757 206.247 230.887C204.54 232.069 202.499 232.673 200.423 232.61C198.806 232.495 197.254 231.93 195.944 230.978C195.829 230.883 195.689 230.824 195.541 230.805C195.393 230.787 195.243 230.812 195.109 230.875C194.974 230.939 194.861 231.04 194.781 231.166C194.702 231.291 194.66 231.437 194.66 231.586V237.643C194.66 237.822 194.696 237.999 194.764 238.164C194.833 238.329 194.934 238.478 195.061 238.605C195.188 238.731 195.338 238.83 195.504 238.898C195.669 238.966 195.847 239.001 196.026 239L219.397 238.905Z" fill="#C1D8ED"/>
<path d="M261.917 238.905C262.204 238.904 262.487 238.844 262.75 238.728C263.012 238.613 263.248 238.444 263.442 238.234C263.636 238.023 263.785 237.775 263.879 237.505C263.973 237.234 264.01 236.947 263.987 236.662C263.956 236.267 263.813 235.888 263.574 235.571C263.335 235.255 263.01 235.013 262.637 234.874L250.225 230.725C249.985 230.646 249.73 230.619 249.478 230.647C249.226 230.675 248.984 230.757 248.767 230.887C247.06 232.069 245.019 232.673 242.943 232.61C241.326 232.495 239.774 231.93 238.464 230.978C238.349 230.883 238.209 230.824 238.062 230.805C237.914 230.787 237.764 230.812 237.629 230.875C237.495 230.939 237.381 231.04 237.302 231.166C237.222 231.291 237.18 231.437 237.181 231.586V237.643C237.181 237.822 237.216 237.999 237.285 238.164C237.354 238.329 237.454 238.478 237.581 238.605C237.708 238.731 237.859 238.83 238.024 238.898C238.19 238.966 238.367 239.001 238.546 239L261.917 238.905Z" fill="#C1D8ED"/>
<path d="M214.3 220.787H191.912V229.998H214.3V220.787Z" fill="#0F1011"/>
<path d="M295.211 67.4089C295.211 67.4089 297.695 68.2262 301.598 66.3909C302.863 65.796 301.773 61.6317 301.319 61.6317C300.457 61.6947 299.591 61.6932 298.729 61.6272C299.637 60.938 300.824 59.921 300.526 59.5106C299.741 58.4328 295.273 60.9294 293.854 61.4554L295.211 67.4089Z" fill="#E98862"/>
<path d="M243.108 42.6757L259.71 74.3545L295.239 65.0029" stroke="#1F2A37" stroke-width="21.804" stroke-linejoin="round"/>
<path d="M244.348 94.3518C241.707 98.9747 199.922 96.4978 200.293 87.9038C200.529 82.4347 205.84 78.2127 206.989 67.6283C208.138 57.0438 199.846 42.474 208.658 35.3987C211.215 33.3459 215.361 32.2904 220.217 32.8098C220.274 35.6753 224.569 40.9969 230.823 41.2599C235.516 41.4565 237.468 37.5441 237.9 34.7876C238.555 34.8686 239.063 34.9335 239.38 34.9831C256.053 37.5137 246.628 55.7411 244.949 69.6982C242.978 86.0294 247.071 89.5912 244.348 94.3518Z" fill="#367CFF"/>
<path d="M237.9 34.7876C237.468 37.5441 235.516 41.4565 230.823 41.2599C224.569 40.9969 220.274 35.6753 220.217 32.8098H220.233C226.346 33.4726 234.342 34.3467 237.9 34.7876Z" fill="#E98862"/>
<path d="M283.917 27.9807L216.654 46.1011C213.552 46.9368 211.716 50.1236 212.553 53.2191L223.901 95.1629C224.739 98.2584 227.932 100.09 231.034 99.2546L298.298 81.1342C301.4 80.2985 303.236 77.1117 302.398 74.0162L291.05 32.0724C290.213 28.9769 287.019 27.145 283.917 27.9807Z" fill="#0CBC8B"/>
<path d="M289.356 35.8907L220.808 48.3215C217.646 48.8948 215.549 51.9169 216.124 55.0715L223.908 97.8168C224.483 100.971 227.512 103.064 230.673 102.491L299.222 90.0599C302.383 89.4866 304.48 86.4645 303.906 83.3099L296.121 40.5646C295.546 37.41 292.518 35.3174 289.356 35.8907Z" fill="#9EBCEA"/>
<path opacity="0.26" d="M289.356 35.8907L220.808 48.3215C217.646 48.8948 215.549 51.9169 216.124 55.0715L223.908 97.8168C224.483 100.971 227.512 103.064 230.673 102.491L299.222 90.0599C302.383 89.4866 304.48 86.4645 303.906 83.3099L296.121 40.5646C295.546 37.41 292.518 35.3174 289.356 35.8907Z" fill="#367CFF"/>
<path opacity="0.34" d="M298.153 51.7242L218.156 66.2311L219.954 76.1045L299.951 61.5976L298.153 51.7242Z" fill="white"/>
<path d="M284.476 87.0388C288.079 87.0388 290.999 84.1245 290.999 80.5294C290.999 76.9344 288.079 74.0201 284.476 74.0201C280.873 74.0201 277.953 76.9344 277.953 80.5294C277.953 84.1245 280.873 87.0388 284.476 87.0388Z" fill="#F3F5FD"/>
<path d="M290.894 85.8749C294.497 85.8749 297.417 82.9605 297.417 79.3655C297.417 75.7705 294.497 72.8561 290.894 72.8561C287.291 72.8561 284.371 75.7705 284.371 79.3655C284.371 82.9605 287.291 85.8749 290.894 85.8749Z" fill="#0CBC8B"/>
<path d="M301.365 60.2803C301.365 60.2803 298.154 59.9139 298.154 62.8879C298.154 65.8618 299.544 66.3909 300.869 66.3909C302.194 66.3909 303.256 66.0052 302.724 63.951C302.192 61.8967 302.392 60.6472 301.365 60.2803Z" fill="#E98862"/>
<path d="M222.951 81.7405C225.345 83.1675 227.953 84.202 230.675 84.8047C233.356 85.3514 236.331 85.3595 238.894 83.925C239.062 83.8307 239.197 83.688 239.283 83.5155C239.368 83.3431 239.4 83.1489 239.373 82.9584C239.346 82.7679 239.263 82.5899 239.133 82.4475C239.003 82.3052 238.833 82.2052 238.646 82.1606C236.083 81.592 233.573 80.8075 231.143 79.8155C230.34 79.4849 229.587 79.0457 228.905 78.5102C230.038 78.3708 231.576 78.0875 231.525 77.5834C231.39 76.2578 226.269 76.1737 224.779 75.9112L222.951 81.7405Z" fill="#E98862"/>
<path d="M224.308 84.5341L193.436 72.9063C192.684 72.6231 192.003 72.1799 191.44 71.6073C190.877 71.0347 190.445 70.3466 190.176 69.5908C189.906 68.835 189.805 68.0297 189.878 67.2308C189.952 66.4319 190.2 65.6587 190.603 64.9649L205.782 38.8687L215.361 44.4123L203.461 64.8717L228.219 74.1954L224.308 84.5341Z" fill="#367CFF"/>
<path d="M225.963 26.571C225.984 26.4824 226.001 26.3927 226.017 26.303C226.183 25.3959 226.329 24.4023 226.436 23.3093L227.604 23.3052L234.684 23.2865C234.225 25.032 233.929 26.8159 233.798 28.6157C233.781 28.8184 233.769 29.0276 233.761 29.2374C233.759 29.2563 233.759 29.2753 233.761 29.2942C233.752 29.5708 233.748 29.8482 233.749 30.1262C233.749 30.3061 233.749 30.487 233.758 30.6689C233.758 30.9005 233.772 31.1295 233.791 31.3601C233.811 31.5906 233.832 31.8161 233.863 32.0426C233.894 32.2691 233.92 32.4911 233.965 32.71C234.037 33.1398 234.142 33.5633 234.28 33.9768V33.9819C234.523 34.7885 234.936 35.5343 235.49 36.1699L222.941 33.8846C223.969 32.6776 225.205 30.487 225.963 26.571Z" fill="#E98862"/>
<path opacity="0.15" d="M234.283 33.9915L228.578 27.7223L233.794 28.6172C233.62 30.4234 233.786 32.2461 234.283 33.9915Z" fill="black"/>
<path d="M222.65 18.4148C222.62 21.6999 223.81 25.0326 226.437 26.5731C229.555 28.4028 232.016 28.9359 235.869 29.6377C241.127 30.5949 241.953 25.0919 243.109 19.6046C244.27 14.0955 244.915 8.07666 243.189 5.77107C239.746 1.16546 227.126 1.3869 224.467 7.55778C223.092 10.7481 222.678 15.2878 222.65 18.4148Z" fill="#E98862"/>
<path d="M247.793 9.91556C247.793 9.91556 250.035 9.8279 249.837 7.57754C249.706 6.08574 247.824 6.06902 247.824 6.06902C247.824 6.06902 249.609 6.06902 249.884 4.56304C250.057 3.61446 249.621 1.87741 247.25 2.39275C244.469 3.00081 241.547 2.32434 239.374 1.53993C238.156 1.03197 236.902 0.616295 235.622 0.296433L235.616 0.2939C234.132 -0.00253713 232.612 -0.0742826 231.106 0.0810761C226.881 0.547768 220.162 3.02868 219.965 11.3896C219.745 20.7214 223.376 24.9668 225.049 26.421C225.148 26.508 225.265 26.5714 225.392 26.6065C225.519 26.6415 225.652 26.6473 225.782 26.6234C225.911 26.5995 226.034 26.5465 226.14 26.4684C226.246 26.3903 226.333 26.2892 226.394 26.1728C227.237 24.57 228.937 20.46 230.292 11.5943C242.718 13.2336 246.294 13.6962 246.294 13.6962C246.294 13.6962 249.174 14.3322 249.56 12.2191C249.947 10.1061 247.793 9.91556 247.793 9.91556Z" fill="#0F1011"/>
<path d="M235.729 18.2496C236.135 18.2496 236.465 17.9209 236.465 17.5154C236.465 17.1099 236.135 16.7811 235.729 16.7811C235.322 16.7811 234.993 17.1099 234.993 17.5154C234.993 17.9209 235.322 18.2496 235.729 18.2496Z" fill="#0F1011"/>
<path d="M241.525 18.8222C241.931 18.8222 242.261 18.4935 242.261 18.088C242.261 17.6825 241.931 17.3537 241.525 17.3537C241.118 17.3537 240.789 17.6825 240.789 18.088C240.789 18.4935 241.118 18.8222 241.525 18.8222Z" fill="#0F1011"/>
<path d="M243.06 16.7771H243.056L241.143 16.4041C241.054 16.3855 240.977 16.3331 240.927 16.2579C240.876 16.1828 240.858 16.0911 240.874 16.0024C240.891 15.9136 240.942 15.835 241.016 15.7834C241.091 15.7318 241.182 15.7112 241.271 15.7262H241.276L243.189 16.0991C243.277 16.1177 243.355 16.1702 243.405 16.2453C243.456 16.3204 243.474 16.4122 243.457 16.5009C243.441 16.5896 243.39 16.6682 243.315 16.7198C243.241 16.7715 243.15 16.792 243.06 16.7771Z" fill="#0F1011"/>
<path d="M234.403 15.9217C234.32 15.9062 234.246 15.8609 234.194 15.7944C234.143 15.728 234.117 15.6449 234.122 15.5609C234.128 15.4769 234.163 15.3977 234.223 15.3383C234.283 15.2789 234.362 15.2432 234.447 15.2382L236.42 15.1282C236.512 15.1232 236.602 15.1546 236.67 15.2157C236.738 15.2768 236.78 15.3624 236.785 15.4538C236.79 15.5452 236.758 15.6348 236.697 15.703C236.636 15.7712 236.55 15.8123 236.458 15.8174L234.485 15.9273C234.458 15.9285 234.43 15.9267 234.403 15.9217Z" fill="#0F1011"/>
<path d="M231.64 18.5967C231.554 19.415 231.147 20.1662 230.508 20.6861C229.869 21.206 229.05 21.4523 228.23 21.3712C227.409 21.2901 226.654 20.8882 226.13 20.2533C225.606 19.6184 225.354 18.8022 225.431 17.9831C225.465 17.5738 225.581 17.1754 225.772 16.8116C225.963 16.4479 226.226 16.1262 226.544 15.8659C226.862 15.6055 227.23 15.4117 227.625 15.296C228.02 15.1804 228.434 15.1452 228.843 15.1926C231.043 15.5199 231.809 16.8866 231.64 18.5967Z" fill="#E98862"/>
<g opacity="0.15">
<path d="M238.209 22.1068C238.149 22.0961 238.095 22.0642 238.056 22.017C238.018 21.9697 237.998 21.9103 238 21.8494C238.002 21.7886 238.025 21.7305 238.067 21.6858C238.108 21.641 238.164 21.6126 238.225 21.6057L239.779 21.4227L239.17 18.9469C239.154 18.8818 239.165 18.8132 239.2 18.756C239.235 18.6989 239.291 18.6578 239.356 18.6418C239.421 18.6258 239.49 18.6362 239.548 18.6707C239.605 18.7051 239.647 18.7609 239.663 18.8258L240.344 21.5798C240.352 21.6147 240.353 21.6511 240.347 21.6865C240.34 21.7218 240.327 21.7554 240.306 21.785C240.285 21.8146 240.259 21.8395 240.228 21.858C240.197 21.8765 240.163 21.8883 240.127 21.8925L238.287 22.1088C238.261 22.1122 238.234 22.1115 238.209 22.1068Z" fill="black"/>
</g>
<path d="M239.268 25.8089C239.268 25.8089 236.793 24.6582 234.776 24.6683C234.776 24.6683 235.372 22.985 237.461 23.516C239.551 24.0471 239.268 25.8089 239.268 25.8089Z" fill="#F8FCFF"/>
<path d="M64.4065 239C99.9773 239 128.813 210.226 128.813 174.731C128.813 139.236 99.9773 110.462 64.4065 110.462C28.8358 110.462 0 139.236 0 174.731C0 210.226 28.8358 239 64.4065 239Z" fill="#0F1011"/>
<path d="M106.725 187.509L95.649 207.695C94.3059 210.143 95.2056 213.214 97.6587 214.554L115.096 224.081C117.549 225.422 120.627 224.524 121.97 222.076L133.046 201.89C134.389 199.442 133.489 196.371 131.036 195.031L113.599 185.504C111.146 184.164 108.068 185.061 106.725 187.509Z" fill="#0F1011"/>
<path d="M32.2006 195.312H23.9506V172.04H32.2688C34.6097 172.04 36.6248 172.506 38.3142 173.438C40.0036 174.362 41.3029 175.691 42.2119 177.426C43.1286 179.161 43.5869 181.237 43.5869 183.653C43.5869 186.078 43.1286 188.161 42.2119 189.903C41.3029 191.646 39.996 192.983 38.2915 193.915C36.5945 194.847 34.5642 195.312 32.2006 195.312ZM28.871 191.097H31.996C33.4506 191.097 34.6741 190.839 35.6665 190.324C36.6665 189.801 37.4165 188.994 37.9165 187.903C38.4241 186.805 38.6779 185.388 38.6779 183.653C38.6779 181.934 38.4241 180.528 37.9165 179.438C37.4165 178.347 36.6703 177.544 35.6779 177.028C34.6854 176.513 33.4619 176.256 32.0074 176.256H28.871V191.097ZM47.2318 195.312V172.04H62.9137V176.097H52.1523V181.642H62.1068V185.699H52.1523V191.256H62.9591V195.312H47.2318ZM66.8256 195.312V172.04H76.1438C77.8559 172.04 79.2839 172.294 80.4279 172.801C81.5718 173.309 82.4316 174.013 83.0074 174.915C83.5832 175.809 83.871 176.839 83.871 178.006C83.871 178.915 83.6892 179.714 83.3256 180.403C82.9619 181.085 82.4619 181.646 81.8256 182.085C81.1968 182.517 80.4771 182.824 79.6665 183.006V183.233C80.5529 183.271 81.3824 183.521 82.1551 183.983C82.9354 184.445 83.568 185.093 84.0529 185.926C84.5377 186.752 84.7801 187.737 84.7801 188.881C84.7801 190.116 84.4733 191.218 83.8597 192.188C83.2536 193.15 82.3559 193.911 81.1665 194.472C79.9771 195.032 78.5112 195.312 76.7688 195.312H66.8256ZM71.746 191.29H75.7574C77.1286 191.29 78.1286 191.028 78.7574 190.506C79.3862 189.975 79.7006 189.271 79.7006 188.392C79.7006 187.748 79.5453 187.18 79.2347 186.688C78.9241 186.195 78.4809 185.809 77.9051 185.528C77.3369 185.248 76.6589 185.108 75.871 185.108H71.746V191.29ZM71.746 181.778H75.3938C76.068 181.778 76.6665 181.661 77.1892 181.426C77.7195 181.184 78.1362 180.843 78.4392 180.403C78.7498 179.964 78.9051 179.438 78.9051 178.824C78.9051 177.983 78.6059 177.305 78.0074 176.79C77.4165 176.275 76.5756 176.017 75.4847 176.017H71.746V181.778ZM87.0955 176.097V172.04H106.209V176.097H99.0841V195.312H94.2205V176.097H87.0955Z" fill="white"/>
</g>
<defs>
<clipPath id="clip0_3_517">
<rect width="304" height="239" fill="white"/>
</clipPath>
</defs>
</svg>
